<?xml version="1.0" encoding="utf-8"?>
<!-- Generator: Adobe Illustrator 19.2.1, SVG Export Plug-In . SVG Version: 6.00 Build 0)  -->
<svg version="1.1" id="Layer_1" xmlns="http://www.w3.org/2000/svg" xmlns:xlink="http://www.w3.org/1999/xlink" x="0px" y="0px"
	 viewBox="0 0 1107.1 1110.1" style="enable-background:new 0 0 1107.1 1110.1;" xml:space="preserve">
<style type="text/css">
	.st0{fill:#B16F22;}
</style>
<g>
	<g>
		<g>
			<path class="st0" d="M552.4,804.4c-66.4,0-128.7-25.8-175.7-72.8c-46.9-46.9-72.8-109.3-72.8-175.7s25.8-128.7,72.8-175.7
				c46.9-46.9,109.3-72.8,175.7-72.8s128.7,25.8,175.7,72.8c46.9,46.9,72.8,109.3,72.8,175.7S775,684.7,728,731.6
				S618.7,804.4,552.4,804.4z M552.4,324.5c-127.6,0-231.4,103.8-231.4,231.4c0,127.6,103.8,231.4,231.4,231.4
				c127.6,0,231.4-103.8,231.4-231.4C783.8,428.3,680,324.5,552.4,324.5z"/>
		</g>
		<g>
			<path class="st0" d="M312.4,804.4c-66.4,0-128.7-25.8-175.7-72.8C89.8,684.7,64,622.3,64,555.9s25.8-128.7,72.8-175.7
				c46.9-46.9,109.3-72.8,175.7-72.8s128.7,25.8,175.7,72.8c46.9,46.9,72.8,109.3,72.8,175.7S535,684.7,488.1,731.6
				S378.8,804.4,312.4,804.4z M312.4,324.5C184.8,324.5,81,428.3,81,555.9c0,127.6,103.8,231.4,231.4,231.4s231.4-103.8,231.4-231.4
				C543.9,428.3,440,324.5,312.4,324.5z"/>
		</g>
		<g>
			<path class="st0" d="M792.3,804.4c-66.4,0-128.7-25.8-175.7-72.8s-72.8-109.3-72.8-175.7s25.8-128.7,72.8-175.7
				c46.9-46.9,109.3-72.8,175.7-72.8S921,333.3,968,380.3c46.9,46.9,72.8,109.3,72.8,175.7s-25.8,128.7-72.8,175.7
				S858.7,804.4,792.3,804.4z M792.3,324.5c-127.6,0-231.4,103.8-231.4,231.4c0,127.6,103.8,231.4,231.4,231.4
				s231.4-103.8,231.4-231.4C1023.7,428.3,919.9,324.5,792.3,324.5z"/>
		</g>
		<g>
			<path class="st0" d="M429.3,591.4c-66.4,0-128.7-25.8-175.7-72.8c-46.9-46.9-72.8-109.3-72.8-175.7s25.8-128.7,72.8-175.7
				c46.9-46.9,109.3-72.8,175.7-72.8s128.7,25.8,175.7,72.8s72.8,109.3,72.8,175.7S651.9,471.7,605,518.6
				C558.1,565.5,495.7,591.4,429.3,591.4z M429.3,111.5c-127.6,0-231.4,103.8-231.4,231.4s103.8,231.4,231.4,231.4
				c127.6,0,231.4-103.8,231.4-231.4S556.9,111.5,429.3,111.5z"/>
		</g>
		<g>
			<path class="st0" d="M671.3,589.3c-66.4,0-128.7-25.8-175.7-72.8s-72.8-109.3-72.8-175.7s25.8-128.7,72.8-175.7
				S605,92.4,671.3,92.4s128.7,25.8,175.7,72.8c46.9,46.9,72.8,109.3,72.8,175.7S893.9,469.6,847,516.5
				C800.1,563.4,737.7,589.3,671.3,589.3z M671.3,109.4c-127.6,0-231.4,103.8-231.4,231.4s103.8,231.4,231.4,231.4
				c127.6,0,231.4-103.8,231.4-231.4S799,109.4,671.3,109.4z"/>
		</g>
		<g>
			<path class="st0" d="M429.3,1009.9c-66.4,0-128.7-25.8-175.7-72.8c-46.9-46.9-72.8-109.3-72.8-175.7s25.8-128.7,72.8-175.7
				C300.6,538.8,363,513,429.3,513s128.7,25.8,175.7,72.8s72.8,109.3,72.8,175.7S651.9,890.2,605,937.1S495.7,1009.9,429.3,1009.9z
				 M429.3,530c-127.6,0-231.4,103.8-231.4,231.4c0,127.6,103.8,231.4,231.4,231.4c127.6,0,231.4-103.8,231.4-231.4
				C660.8,633.8,556.9,530,429.3,530z"/>
		</g>
		<g>
			<path class="st0" d="M669.3,1009.9c-66.4,0-128.7-25.8-175.7-72.8s-72.8-109.3-72.8-175.7s25.8-128.7,72.8-175.7
				S602.9,513,669.3,513s128.7,25.8,175.7,72.8s72.8,109.3,72.8,175.7s-25.8,128.7-72.8,175.7S735.6,1009.9,669.3,1009.9z
				 M669.3,530c-127.6,0-231.4,103.8-231.4,231.4c0,127.6,103.8,231.4,231.4,231.4c127.6,0,231.4-103.8,231.4-231.4
				C900.7,633.8,796.9,530,669.3,530z"/>
		</g>
	</g>
	<g>
		<path class="st0" d="M551.5,1047c-66.8,0-131.5-13.1-192.5-38.9c-58.9-24.9-111.8-60.6-157.2-106s-81.1-98.3-106-157.2
			C70.1,684.1,57,619.3,57,552.5c0-66.8,13.1-131.5,38.9-192.5c24.9-58.9,60.6-111.8,106-157.2c45.4-45.4,98.3-81.1,157.2-106
			C420,71.1,484.8,58,551.5,58S683.1,71.1,744,96.9c58.9,24.9,111.8,60.6,157.2,106c45.4,45.4,81.1,98.3,106,157.2
			c25.8,61,38.9,125.7,38.9,192.5c0,66.8-13.1,131.5-38.9,192.5c-24.9,58.9-60.6,111.8-106,157.2s-98.3,81.1-157.2,106
			C683.1,1034,618.3,1047,551.5,1047z M551.5,75C288.3,75,74,289.3,74,552.5C74,815.8,288.3,1030,551.5,1030S1029,815.8,1029,552.5
			C1029,289.3,814.8,75,551.5,75z"/>
	</g>
</g>
<g>
	<path class="st0" d="M551.5,1095.1c-73.2,0-144.3-14.3-211.2-42.6c-64.6-27.3-122.6-66.4-172.5-116.3
		C118.1,886.4,79,828.3,51.6,763.7C23.3,696.8,9,625.8,9,552.5c0-73.2,14.3-144.3,42.6-211.2c27.3-64.6,66.4-122.6,116.3-172.5
		C217.7,119.1,275.7,80,340.4,52.6C407.2,24.3,478.3,10,551.5,10s144.3,14.3,211.2,42.6c64.6,27.3,122.6,66.4,172.5,116.3
		c49.8,49.8,88.9,107.9,116.3,172.5c28.3,66.9,42.6,137.9,42.6,211.2c0,73.2-14.3,144.3-42.6,211.2
		c-27.3,64.6-66.4,122.6-116.3,172.5c-49.8,49.8-107.8,88.9-172.5,116.3C695.8,1080.8,624.8,1095.1,551.5,1095.1z M551.5,16
		C255.7,16,15,256.7,15,552.5c0,295.9,240.7,536.6,536.6,536.6s536.6-240.7,536.6-536.6C1088.1,256.7,847.4,16,551.5,16z"/>
</g>
</svg>
