<?xml version="1.0" encoding="utf-8"?>
<!-- Generator: Adobe Illustrator 19.2.1, SVG Export Plug-In . SVG Version: 6.00 Build 0)  -->
<svg version="1.1" id="Layer_1" xmlns="http://www.w3.org/2000/svg" xmlns:xlink="http://www.w3.org/1999/xlink" x="0px" y="0px"
	 viewBox="0 0 729.1 1348.8" style="enable-background:new 0 0 729.1 1348.8;" xml:space="preserve">
<style type="text/css">
	.st0{fill:#77011e;}
	.st1{fill:#956929;}
</style>
<g>
	<g>
		<g>
			<g>
				<path class="st0" d="M386.4,543.4c-6.2,0-11.2-5-11.2-11.2c0-6.2,5-11.2,11.2-11.2s11.2,5,11.2,11.2
					C397.5,538.3,392.5,543.4,386.4,543.4z M386.4,525.4c-3.7,0-6.8,3-6.8,6.8c0,3.7,3,6.8,6.8,6.8s6.8-3,6.8-6.8
					C393.1,528.5,390.1,525.4,386.4,525.4z"/>
			</g>
		</g>
		<g>
			<g>
				<path class="st0" d="M370.6,562.6c-6.2,0-11.2-5-11.2-11.2s5-11.2,11.2-11.2c6.2,0,11.2,5,11.2,11.2S376.7,562.6,370.6,562.6z
					 M370.6,544.7c-3.7,0-6.8,3-6.8,6.8c0,3.7,3,6.8,6.8,6.8c3.7,0,6.8-3,6.8-6.8C377.4,547.7,374.3,544.7,370.6,544.7z"/>
			</g>
		</g>
		<g>
			<g>
				<path class="st0" d="M402.2,562.6c-6.2,0-11.2-5-11.2-11.2s5-11.2,11.2-11.2c6.2,0,11.2,5,11.2,11.2S408.4,562.6,402.2,562.6z
					 M402.2,544.7c-3.7,0-6.8,3-6.8,6.8c0,3.7,3,6.8,6.8,6.8c3.7,0,6.8-3,6.8-6.8C409,547.7,406,544.7,402.2,544.7z"/>
			</g>
		</g>
		<g>
			<g>
				<polygon class="st0" points="362.2,611.2 368.7,611.2 386.4,564.6 404.5,611.2 410.5,611.2 386.4,547.9 				"/>
			</g>
		</g>
		<g>
			<g>
				<polygon class="st0" points="374.3,611.2 386.4,579.2 398.3,611.2 392.3,611.2 386.4,596.5 380.3,611.2 				"/>
			</g>
		</g>
	</g>
	<g>
		<path class="st1" d="M386.4,634.3c-36.2,0-65.6-29.4-65.6-65.6c0-36.2,29.4-65.6,65.6-65.6s65.6,29.4,65.6,65.6
			C452,604.9,422.6,634.3,386.4,634.3z M386.4,512.3c-31.1,0-56.4,25.3-56.4,56.4c0,31.1,25.3,56.4,56.4,56.4
			c31.1,0,56.4-25.3,56.4-56.4C442.8,537.6,417.5,512.3,386.4,512.3z"/>
	</g>
</g>
<g>
	<g>
		<g>
			
				<rect x="129.5" y="388.7" transform="matrix(0.7071 0.7071 -0.7071 0.7071 340.9696 31.1056)" class="st0" width="7" height="77"/>
		</g>
		<g>
			
				<rect x="155.5" y="414.7" transform="matrix(0.7071 0.7071 -0.7071 0.7071 366.9791 20.3321)" class="st0" width="7" height="77"/>
		</g>
		<g>
			
				<rect x="123.4" y="447" transform="matrix(0.7071 0.7071 -0.7071 0.7071 361.584 44.6817)" class="st0" width="7" height="23.6"/>
		</g>
		<g>
			
				<rect x="155.5" y="388.7" transform="matrix(-0.7071 0.7071 -0.7071 -0.7071 573.3718 616.7806)" class="st0" width="7" height="77"/>
		</g>
		<g>
			
				<rect x="161.4" y="447.3" transform="matrix(-0.7071 0.7071 -0.7071 -0.7071 606.049 667.0989)" class="st0" width="7" height="23.4"/>
		</g>
		<g>
			
				<rect x="129.5" y="414.7" transform="matrix(-0.7071 0.7071 -0.7071 -0.7071 547.3624 679.5731)" class="st0" width="7" height="77"/>
		</g>
		<g>
			
				<rect x="123.6" y="409.5" transform="matrix(-0.7071 0.7071 -0.7071 -0.7071 514.7959 629.3007)" class="st0" width="7" height="23.6"/>
		</g>
		<g>
			
				<rect x="147.8" y="426.4" transform="matrix(-0.7071 0.7071 -0.7071 -0.7071 564.9418 636.9304)" class="st0" width="5.5" height="18.1"/>
		</g>
		<g>
			
				<rect x="138.8" y="435.4" transform="matrix(-0.7071 0.7071 -0.7071 -0.7071 555.9667 658.5983)" class="st0" width="5.5" height="18.1"/>
		</g>
		<g>
			
				<rect x="138.8" y="426.4" transform="matrix(0.7071 0.7071 -0.7071 0.7071 349.3915 27.4313)" class="st0" width="5.5" height="18.1"/>
		</g>
		<g>
			
				<rect x="147.8" y="435.4" transform="matrix(0.7071 0.7071 -0.7071 0.7071 358.3666 23.7137)" class="st0" width="5.5" height="18.1"/>
		</g>
		<g>
			
				<rect x="161.1" y="409.3" transform="matrix(0.7071 0.7071 -0.7071 0.7071 345.9464 6.9293)" class="st0" width="7" height="23.6"/>
		</g>
	</g>
	<g>
		<path class="st1" d="M145.9,505.7c-36.2,0-65.6-29.4-65.6-65.6c0-36.2,29.4-65.6,65.6-65.6s65.6,29.4,65.6,65.6
			C211.5,476.3,182.1,505.7,145.9,505.7z M145.9,383.7c-31.1,0-56.4,25.3-56.4,56.4c0,31.1,25.3,56.4,56.4,56.4
			c31.1,0,56.4-25.3,56.4-56.4C202.4,409,177.1,383.7,145.9,383.7z"/>
	</g>
</g>
<g>
	<g>
		<g>
			<g>
				<g>
					
						<rect x="652.8" y="687.5" transform="matrix(0.7071 0.7071 -0.7071 0.7071 689.716 -257.7974)" class="st0" width="6.4" height="32.2"/>
				</g>
				<g>
					
						<rect x="636.9" y="669.8" transform="matrix(0.7071 0.7071 -0.7071 0.7071 672.4949 -251.7702)" class="st0" width="6.4" height="32.2"/>
				</g>
				<g>
					
						<rect x="635.2" y="689.3" transform="matrix(-0.7071 0.7071 -0.7071 -0.7071 1587.9915 750.9904)" class="st0" width="6.4" height="30.2"/>
				</g>
			</g>
			<g>
				<g>
					
						<rect x="652.8" y="633.8" transform="matrix(0.7071 -0.7071 0.7071 0.7071 -267.3953 654.2459)" class="st0" width="6.4" height="32.2"/>
				</g>
				<g>
					
						<rect x="636.9" y="651.6" transform="matrix(0.7071 -0.7071 0.7071 0.7071 -284.6164 648.2187)" class="st0" width="6.4" height="32.2"/>
				</g>
				<g>
					
						<rect x="635.2" y="634.1" transform="matrix(-0.7071 -0.7071 0.7071 -0.7071 630.8802 1559.6807)" class="st0" width="6.4" height="30.2"/>
				</g>
			</g>
		</g>
		<g>
			<g>
				<g>
					
						<rect x="585.9" y="687.5" transform="matrix(-0.7071 0.7071 -0.7071 -0.7071 1503.1787 784.6873)" class="st0" width="6.4" height="32.2"/>
				</g>
				<g>
					
						<rect x="601.7" y="669.8" transform="matrix(-0.7071 0.7071 -0.7071 -0.7071 1517.7297 743.1119)" class="st0" width="6.4" height="32.2"/>
				</g>
				<g>
					
						<rect x="603.4" y="689.3" transform="matrix(0.7071 0.7071 -0.7071 0.7071 675.7583 -222.6668)" class="st0" width="6.4" height="30.2"/>
				</g>
			</g>
			<g>
				<g>
					
						<rect x="585.9" y="633.8" transform="matrix(-0.7071 -0.7071 0.7071 -0.7071 546.0674 1525.9839)" class="st0" width="6.4" height="32.2"/>
				</g>
				<g>
					
						<rect x="601.7" y="651.6" transform="matrix(-0.7071 -0.7071 0.7071 -0.7071 560.6185 1567.5592)" class="st0" width="6.4" height="32.2"/>
				</g>
				<g>
					
						<rect x="603.4" y="634.1" transform="matrix(0.7071 -0.7071 0.7071 0.7071 -281.353 619.1153)" class="st0" width="6.4" height="30.2"/>
				</g>
			</g>
		</g>
	</g>
	<g>
		<path class="st1" d="M622.6,742.4c-36.2,0-65.6-29.4-65.6-65.6c0-36.2,29.4-65.6,65.6-65.6s65.6,29.4,65.6,65.6
			C688.1,712.9,658.7,742.4,622.6,742.4z M622.6,620.4c-31.1,0-56.4,25.3-56.4,56.4c0,31.1,25.3,56.4,56.4,56.4
			c31.1,0,56.4-25.3,56.4-56.4C679,645.7,653.7,620.4,622.6,620.4z"/>
	</g>
</g>
<g>
	<g>
		<g>
			
				<rect x="383.6" y="755.6" transform="matrix(0.7071 0.7071 -0.7071 0.7071 672.5095 -41.6186)" class="st0" width="5.7" height="70.8"/>
		</g>
		<g>
			
				<rect x="351.6" y="759.7" transform="matrix(0.7071 0.7071 -0.7071 0.7071 655.4449 -22.0983)" class="st0" width="5.7" height="41"/>
		</g>
		<g>
			
				<rect x="415.3" y="781.2" transform="matrix(0.7071 0.7071 -0.7071 0.7071 689.5606 -60.7772)" class="st0" width="5.7" height="41.7"/>
		</g>
		<g>
			
				<rect x="371.4" y="775.4" transform="matrix(0.7071 0.7071 -0.7071 0.7071 665.228 -34.5191)" class="st0" width="5.7" height="20.8"/>
		</g>
		<g>
			
				<rect x="395.3" y="786.4" transform="matrix(0.7071 0.7071 -0.7071 0.7071 680.0159 -48.1999)" class="st0" width="5.7" height="20.8"/>
		</g>
		<g>
			
				<rect x="370.4" y="762.2" transform="matrix(-0.7071 0.7071 -0.7071 -0.7071 1184.4232 1057.4253)" class="st0" width="5.7" height="23.5"/>
		</g>
		<g>
			
				<rect x="396.3" y="796.7" transform="matrix(-0.7071 0.7071 -0.7071 -0.7071 1252.9943 1097.891)" class="st0" width="5.7" height="23.5"/>
		</g>
		<g>
			
				<rect x="349.8" y="785.3" transform="matrix(-0.7071 0.7071 -0.7071 -0.7071 1169.9775 1121.9894)" class="st0" width="5.7" height="35.9"/>
		</g>
		<g>
			
				<rect x="417.4" y="760.7" transform="matrix(-0.7071 0.7071 -0.7071 -0.7071 1267.9041 1032.0364)" class="st0" width="5.7" height="35.9"/>
		</g>
	</g>
	<g>
		<path class="st1" d="M386.4,856.8c-36.2,0-65.6-29.4-65.6-65.6c0-36.2,29.4-65.6,65.6-65.6s65.6,29.4,65.6,65.6
			C452,827.4,422.6,856.8,386.4,856.8z M386.4,734.8c-31.1,0-56.4,25.3-56.4,56.4c0,31.1,25.3,56.4,56.4,56.4
			c31.1,0,56.4-25.3,56.4-56.4C442.8,760.1,417.5,734.8,386.4,734.8z"/>
	</g>
</g>
<g>
	<g>
		<g>
			<g>
				<path class="st0" d="M640.3,481.8l-17.8-17.8l-17.8,17.8v-23.9h-23.9l17.8-17.8l-17.8-17.8h23.9v-23.9l17.8,17.8l17.8-17.8v23.9
					h23.9l-17.8,17.8l17.8,17.8h-23.9V481.8z M622.6,457.1l12.9,12.9v-17h17l-12.9-12.9l12.9-12.9h-17v-17l-12.9,12.9l-12.9-12.9v17
					h-17l12.9,12.9L592.7,453h17v17L622.6,457.1z"/>
			</g>
		</g>
	</g>
	<g>
		<path class="st1" d="M622.6,505.7c-36.2,0-65.6-29.4-65.6-65.6s29.4-65.6,65.6-65.6c36.2,0,65.6,29.4,65.6,65.6
			S658.7,505.7,622.6,505.7z M622.6,383.7c-31.1,0-56.4,25.3-56.4,56.4c0,31.1,25.3,56.4,56.4,56.4c31.1,0,56.4-25.3,56.4-56.4
			C679,409,653.7,383.7,622.6,383.7z"/>
	</g>
</g>
<g>
	<g>
		<g>
			<g>
				<polygon class="st0" points="406.3,70.3 406.4,77.4 351.7,118.9 348.2,114.3 				"/>
			</g>
			<g>
				<polygon class="st0" points="406.3,70.3 406.1,77.4 428.8,94.7 432.3,90 				"/>
			</g>
		</g>
		<g>
			<g>
				<polygon class="st0" points="366.6,70.3 366.4,77.4 421.1,118.9 424.6,114.3 				"/>
			</g>
			<g>
				<polygon class="st0" points="366.6,70.3 366.7,77.4 344,94.7 340.5,90 				"/>
			</g>
		</g>
	</g>
	<g>
		<path class="st1" d="M386.4,160.2c-36.2,0-65.6-29.4-65.6-65.6S350.2,29,386.4,29S452,58.4,452,94.6S422.6,160.2,386.4,160.2z
			 M386.4,38.1c-31.1,0-56.4,25.3-56.4,56.4c0,31.1,25.3,56.4,56.4,56.4c31.1,0,56.4-25.3,56.4-56.4
			C442.8,63.5,417.5,38.1,386.4,38.1z"/>
	</g>
</g>
<g>
	<g>
		<g>
			<rect x="149.3" y="646.3" class="st0" width="6.8" height="60.9"/>
		</g>
		<g>
			
				<rect x="162.8" y="632.8" transform="matrix(2.299831e-011 1 -1 2.299831e-011 815.9593 483.5007)" class="st0" width="6.8" height="33.8"/>
		</g>
		<g>
			
				<rect x="122.3" y="632.8" transform="matrix(2.165272e-011 1 -1 2.165272e-011 775.3845 524.0755)" class="st0" width="6.8" height="33.8"/>
		</g>
		<g>
			
				<rect x="122.3" y="686.9" transform="matrix(2.165272e-011 1 -1 2.165272e-011 829.4843 578.1752)" class="st0" width="6.8" height="33.8"/>
		</g>
		<g>
			
				<rect x="142.6" y="653.1" transform="matrix(3.106741e-011 1 -1 3.106741e-011 822.7218 530.838)" class="st0" width="6.8" height="47.3"/>
		</g>
		<g>
			
				<rect x="162.8" y="686.9" transform="matrix(2.299831e-011 1 -1 2.299831e-011 870.059 537.6004)" class="st0" width="6.8" height="33.8"/>
		</g>
		<g>
			<rect x="135.8" y="646.3" class="st0" width="6.8" height="60.9"/>
		</g>
	</g>
	<g>
		<path class="st1" d="M145.9,742.4c-36.2,0-65.6-29.4-65.6-65.6c0-36.2,29.4-65.6,65.6-65.6s65.6,29.4,65.6,65.6
			C211.5,712.9,182.1,742.4,145.9,742.4z M145.9,620.4c-31.1,0-56.4,25.3-56.4,56.4c0,31.1,25.3,56.4,56.4,56.4s56.4-25.3,56.4-56.4
			C202.4,645.7,177.1,620.4,145.9,620.4z"/>
	</g>
</g>
<g>
	<g>
		<path class="st1" d="M386.5,398.1c-36.2,0-65.6-29.4-65.6-65.6s29.4-65.6,65.6-65.6s65.6,29.4,65.6,65.6S422.7,398.1,386.5,398.1z
			 M386.5,276.1c-31.1,0-56.4,25.3-56.4,56.4c0,31.1,25.3,56.4,56.4,56.4s56.4-25.3,56.4-56.4C442.9,301.4,417.6,276.1,386.5,276.1z
			"/>
	</g>
	<path class="st0" d="M437.1,318.2l-4-4l-14,14l-12.1-12.1l0,0l-4-4l0,0l-12.1-12.1l0,0l-4-4l0,0l0,0l-4,4l0,0L370.5,312l0,0l-4,4
		l0,0l-12.6,12.6l-13.9-13.9l-4,4l13.9,13.9l-13.5,13.5l4,4l13.5-13.5l32.4,32.4l4-4l0,0l12.6-12.6l0,0l4-4l0,0l12.1-12.1l14,14l4-4
		l-14-14L437.1,318.2z M386.7,303.9l12.1,12.1l-12.1,12.1l-12.1-12.1L386.7,303.9z M370.5,320.1l12.1,12.1L370,344.9l-12.1-12.1
		L370.5,320.1z M386.2,361l-12.1-12.1l12.6-12.6l12.1,12.1L386.2,361z M402.9,344.4l-12.1-12.1l12.1-12.1l12.1,12.1L402.9,344.4z"/>
</g>
<g>
	<g>
		<g>
			<g>
				
					<rect x="166.6" y="921.9" transform="matrix(0.7071 0.7071 -0.7071 0.7071 710.9124 154.15)" class="st0" width="5.6" height="26.6"/>
			</g>
			<g>
				
					<rect x="124.2" y="879.6" transform="matrix(0.7071 0.7071 -0.7071 0.7071 668.6175 171.6847)" class="st0" width="5.6" height="26.6"/>
			</g>
			<g>
				
					<rect x="145.6" y="871" transform="matrix(-0.7071 0.7071 -0.7071 -0.7071 899.8647 1455.8372)" class="st0" width="5.6" height="86.5"/>
			</g>
		</g>
		<g>
			<g>
				
					<rect x="124.5" y="921.9" transform="matrix(-0.7071 0.7071 -0.7071 -0.7071 878.5842 1506.5228)" class="st0" width="5.6" height="26.6"/>
			</g>
			<g>
				
					<rect x="166.8" y="879.6" transform="matrix(-0.7071 0.7071 -0.7071 -0.7071 920.9166 1404.4139)" class="st0" width="5.6" height="26.6"/>
			</g>
			<g>
				
					<rect x="145.4" y="871" transform="matrix(0.7071 0.7071 -0.7071 0.7071 689.9177 162.9647)" class="st0" width="5.6" height="86.5"/>
			</g>
		</g>
	</g>
	<g>
		<path class="st1" d="M145.9,979c-36.2,0-65.6-29.4-65.6-65.6c0-36.2,29.4-65.6,65.6-65.6s65.6,29.4,65.6,65.6
			C211.5,949.6,182.1,979,145.9,979z M145.9,857c-31.1,0-56.4,25.3-56.4,56.4c0,31.1,25.3,56.4,56.4,56.4
			c31.1,0,56.4-25.3,56.4-56.4C202.4,882.3,177.1,857,145.9,857z"/>
	</g>
</g>
<g>
	<g>
		<g>
			<rect x="382.9" y="979.5" class="st0" width="6.2" height="86.2"/>
		</g>
		<g>
			
				<rect x="398" y="1014.7" transform="matrix(0.5902 0.8073 -0.8073 0.5902 998.9792 99.957)" class="st0" width="6.2" height="38.3"/>
		</g>
		<g>
			
				<rect x="398" y="995.3" transform="matrix(0.5902 0.8073 -0.8073 0.5902 983.3228 92.0086)" class="st0" width="6.2" height="38.3"/>
		</g>
		<g>
			
				<rect x="398" y="975.9" transform="matrix(0.5902 0.8073 -0.8073 0.5902 967.6662 84.0603)" class="st0" width="6.2" height="38.3"/>
		</g>
		<g>
			
				<rect x="368.7" y="1014.7" transform="matrix(-0.5902 0.8073 -0.8073 -0.5902 1425.7882 1343.8888)" class="st0" width="6.2" height="38.3"/>
		</g>
		<g>
			
				<rect x="368.7" y="995.3" transform="matrix(-0.5902 0.8073 -0.8073 -0.5902 1410.1317 1313.049)" class="st0" width="6.2" height="38.3"/>
		</g>
		<g>
			
				<rect x="368.7" y="975.9" transform="matrix(-0.5902 0.8073 -0.8073 -0.5902 1394.4752 1282.2091)" class="st0" width="6.2" height="38.3"/>
		</g>
	</g>
	<g>
		<path class="st1" d="M386.4,1088.2c-36.2,0-65.6-29.4-65.6-65.6c0-36.2,29.4-65.6,65.6-65.6s65.6,29.4,65.6,65.6
			C452,1058.8,422.6,1088.2,386.4,1088.2z M386.4,966.2c-31.1,0-56.4,25.3-56.4,56.4c0,31.1,25.3,56.4,56.4,56.4
			s56.4-25.3,56.4-56.4C442.8,991.5,417.5,966.2,386.4,966.2z"/>
	</g>
</g>
<g>
	<g>
		<g>
			
				<rect x="629.5" y="926.4" transform="matrix(0.7071 0.7071 -0.7071 0.7071 852.6017 -170.7278)" class="st0" width="5.7" height="34.8"/>
		</g>
		<g>
			
				<rect x="619.7" y="881.5" transform="matrix(0.7071 0.7071 -0.7071 0.7071 828.209 -172.6594)" class="st0" width="5.7" height="63.8"/>
		</g>
		<g>
			
				<rect x="619.7" y="882.1" transform="matrix(-0.7071 0.7071 -0.7071 -0.7071 1708.5892 1119.0931)" class="st0" width="5.7" height="62.7"/>
		</g>
		<g>
			
				<rect x="625.7" y="867.5" transform="matrix(-0.7071 0.7071 -0.7071 -0.7071 1694.2145 1055.1459)" class="st0" width="5.7" height="21.8"/>
		</g>
		<g>
			
				<rect x="584.8" y="897" transform="matrix(0.7071 0.7071 -0.7071 0.7071 814.1862 -149.5556)" class="st0" width="5.7" height="22.1"/>
		</g>
		<g>
			
				<rect x="654.5" y="907.7" transform="matrix(0.7071 0.7071 -0.7071 0.7071 842.2727 -195.6644)" class="st0" width="5.7" height="22.4"/>
		</g>
		<g>
			
				<rect x="609.8" y="865.6" transform="matrix(0.7071 0.7071 -0.7071 0.7071 803.8162 -174.591)" class="st0" width="5.7" height="34.8"/>
		</g>
		<g>
			
				<rect x="650.4" y="885.8" transform="matrix(-0.7071 0.7071 -0.7071 -0.7071 1753.6173 1079.4264)" class="st0" width="5.7" height="34.1"/>
		</g>
		<g>
			
				<rect x="613.6" y="937.5" transform="matrix(-0.7071 0.7071 -0.7071 -0.7071 1723.0133 1183.144)" class="st0" width="5.7" height="21.8"/>
		</g>
		<g>
			
				<rect x="589.1" y="906.8" transform="matrix(-0.7071 0.7071 -0.7071 -0.7071 1663.8217 1158.626)" class="st0" width="5.7" height="34.3"/>
		</g>
	</g>
	<g>
		<path class="st1" d="M622.6,979c-36.2,0-65.6-29.4-65.6-65.6c0-36.2,29.4-65.6,65.6-65.6c36.2,0,65.6,29.4,65.6,65.6
			C688.1,949.6,658.7,979,622.6,979z M622.6,857c-31.1,0-56.4,25.3-56.4,56.4c0,31.1,25.3,56.4,56.4,56.4
			c31.1,0,56.4-25.3,56.4-56.4C679,882.3,653.7,857,622.6,857z"/>
	</g>
</g>
<g>
	<g>
		<g>
			<rect x="383.1" y="1245.8" class="st0" width="6.3" height="37.9"/>
		</g>
		<g>
			<polygon class="st0" points="384.5,1276.7 389,1281.2 367.5,1302.7 358.4,1302.8 			"/>
		</g>
		<g>
			<polygon class="st0" points="388.3,1276.7 383.8,1281.2 405.3,1302.7 414.4,1302.8 			"/>
		</g>
		<g>
			<g>
				<path class="st0" d="M386.3,1249.1c-10.6,0-19.1-8.6-19.1-19.1s8.6-19.1,19.1-19.1c10.6,0,19.1,8.6,19.1,19.1
					S396.8,1249.1,386.3,1249.1z M386.3,1215.9c-7.7,0-14,6.3-14,14s6.3,14,14,14c7.7,0,14-6.3,14-14S394,1215.9,386.3,1215.9z"/>
			</g>
		</g>
		<g>
			<circle class="st0" cx="386.3" cy="1230" r="7.8"/>
		</g>
	</g>
	<g>
		<path class="st1" d="M386.4,1325.1c-36.2,0-65.6-29.4-65.6-65.6c0-36.2,29.4-65.6,65.6-65.6s65.6,29.4,65.6,65.6
			C452,1295.7,422.6,1325.1,386.4,1325.1z M386.4,1203.1c-31.1,0-56.4,25.3-56.4,56.4c0,31.1,25.3,56.4,56.4,56.4
			s56.4-25.3,56.4-56.4C442.8,1228.4,417.5,1203.1,386.4,1203.1z"/>
	</g>
</g>
<rect x="90.8" y="553" transform="matrix(-4.130811e-010 -1 1 -4.130811e-010 -412.3008 704.1846)" class="st1" width="110.4" height="10.4"/>
<rect x="206.7" y="908.2" transform="matrix(-1 8.268973e-011 -8.268973e-011 -1 769.4971 1826.8313)" class="st1" width="356.1" height="10.4"/>
<rect x="331.1" y="901.6" transform="matrix(-4.121503e-010 -1 1 -4.121503e-010 -520.4559 1293.2657)" class="st1" width="110.6" height="10.4"/>
<rect x="358.7" y="696.2" transform="matrix(-8.242846e-010 -1 1 -8.242846e-010 -314.9729 1087.7827)" class="st1" width="55.3" height="10.4"/>
<rect x="330.1" y="1135.2" transform="matrix(-4.049329e-010 -1 1 -4.049329e-010 -754.0543 1526.7635)" class="st1" width="112.6" height="10.4"/>
<rect x="437.5" y="963.2" transform="matrix(0.894 -0.448 0.448 0.894 -380.3408 328.7921)" class="st1" width="134.8" height="10.4"/>
<rect x="197.4" y="964" transform="matrix(-0.894 -0.448 0.448 -0.894 70.6115 1955.1279)" class="st1" width="138.3" height="10.4"/>
<rect x="437.5" y="729.6" transform="matrix(0.894 -0.448 0.448 0.894 -275.6683 304.0353)" class="st1" width="134.8" height="10.4"/>
<rect x="194.1" y="729.6" transform="matrix(-0.894 -0.448 0.448 -0.894 172.8355 1510.5183)" class="st1" width="141.9" height="10.4"/>
<rect x="116.7" y="1080.2" transform="matrix(-0.5808 -0.814 0.814 -0.5808 -461.4408 1933.2965)" class="st1" width="300.7" height="10.4"/>
<rect x="361.1" y="1081.9" transform="matrix(0.5808 -0.814 0.814 0.5808 -671.462 870.3086)" class="st1" width="296.5" height="10.4"/>
<rect x="360.8" y="412.8" transform="matrix(-8.913121e-010 1 -1 -8.913121e-010 804.4269 31.6171)" class="st1" width="51.1" height="10.4"/>
<rect x="330.1" y="209" transform="matrix(-4.049332e-010 1 -1 -4.049332e-010 600.5678 -172.1414)" class="st1" width="112.6" height="10.4"/>
<rect x="437.5" y="381" transform="matrix(0.894 0.448 -0.448 0.894 226.4917 -185.2667)" class="st1" width="134.8" height="10.4"/>
<rect x="197.3" y="379.8" transform="matrix(-0.894 0.448 -0.448 -0.894 678.796 609.4595)" class="st1" width="140.1" height="10.4"/>
<rect x="116.7" y="264" transform="matrix(-0.5808 0.814 -0.814 -0.5808 641.2462 208.1435)" class="st1" width="300.7" height="10.4"/>
<rect x="361.1" y="262.3" transform="matrix(0.5808 0.814 -0.814 0.5808 431.2579 -302.5092)" class="st1" width="296.6" height="10.4"/>
<rect x="567.4" y="551.5" transform="matrix(-4.131468e-010 -1 1 -4.131468e-010 65.8183 1179.3036)" class="st1" width="110.4" height="10.4"/>
<rect x="206.7" y="671.6" transform="matrix(-1 8.268707e-011 -8.268707e-011 -1 769.4971 1353.5599)" class="st1" width="356.1" height="10.4"/>
<rect x="206.7" y="434.9" transform="matrix(-1 8.266264e-011 -8.266264e-011 -1 769.6133 880.2886)" class="st1" width="356.3" height="10.4"/>
<rect x="567.4" y="790.2" transform="matrix(-4.131468e-010 -1 1 -4.131468e-010 -172.8984 1418.0203)" class="st1" width="110.4" height="10.4"/>
<rect x="90.8" y="791.2" transform="matrix(-4.130811e-010 -1 1 -4.130811e-010 -650.4335 942.3173)" class="st1" width="110.4" height="10.4"/>
</svg>
