<?xml version="1.0" encoding="utf-8"?>
<!-- Generator: Adobe Illustrator 19.2.1, SVG Export Plug-In . SVG Version: 6.00 Build 0)  -->
<svg version="1.1" id="Layer_1" xmlns="http://www.w3.org/2000/svg" xmlns:xlink="http://www.w3.org/1999/xlink" x="0px" y="0px"
	 viewBox="0 0 692 1468" style="enable-background:new 0 0 692 1468;" xml:space="preserve">
<style type="text/css">
	.st0tree{fill:#956929;stroke:#956929;stroke-width:8;stroke-miterlimit:10;}
	.st1tree{fill:#956929;}
</style>
<rect x="411.4" y="798.1" transform="matrix(0.894 -0.448 0.448 0.894 -308.6732 302.4524)" class="st0tree" width="147.3" height="11.4"/>
<rect x="145.5" y="798.1" transform="matrix(-0.894 -0.448 0.448 -0.894 62.4107 1622.371)" class="st0tree" width="155" height="11.4"/>
<rect x="411.4" y="671.1" transform="matrix(0.894 0.448 -0.448 0.894 354.5624 -145.5868)" class="st0tree" width="147.3" height="11.4"/>
<rect x="145.5" y="671" transform="matrix(-0.894 0.448 -0.448 -0.894 725.6464 1181.8231)" class="st0tree" width="155" height="11.4"/>
<rect x="325.4" y="761.6" transform="matrix(-8.243103e-010 -1 1 -8.243103e-010 -411.6565 1122.8962)" class="st0tree" width="60.4" height="11.4"/>
<rect x="325.4" y="706.8" transform="matrix(-8.243103e-010 -1 1 -8.243103e-010 -356.9157 1068.1555)" class="st0tree" width="60.4" height="11.4"/>
<rect x="329" y="1019.8" transform="matrix(-9.351345e-010 -1 1 -9.351345e-010 -669.8904 1381.1302)" class="st0tree" width="53.3" height="11.4"/>
<g>
	
		<rect x="553.3" y="603.6" transform="matrix(-4.131601e-010 -1 1 -4.131601e-010 4.2776 1222.8635)" class="st0tree" width="120.5" height="11.4"/>
	
		<rect x="553.3" y="864.3" transform="matrix(-4.131601e-010 -1 1 -4.131601e-010 -256.47 1483.6112)" class="st0tree" width="120.5" height="11.4"/>
	
		<rect x="32.7" y="605.2" transform="matrix(-4.130695e-010 -1 1 -4.130695e-010 -517.9666 703.8961)" class="st0tree" width="120.5" height="11.4"/>
	
		<rect x="159.3" y="993.2" transform="matrix(-1 8.268884e-011 -8.268884e-011 -1 707.6212 1997.766)" class="st0tree" width="389" height="11.4"/>
	
		<rect x="294.1" y="1241.1" transform="matrix(-4.049436e-010 -1 1 -4.049436e-010 -891.2603 1602.3901)" class="st0tree" width="123" height="11.4"/>
	
		<rect x="411.4" y="1053.3" transform="matrix(0.894 -0.448 0.448 0.894 -423.006 329.4939)" class="st0tree" width="147.3" height="11.4"/>
	
		<rect x="149.1" y="1054.1" transform="matrix(-0.894 -0.448 0.448 -0.894 -49.2474 2108.0132)" class="st0tree" width="151" height="11.4"/>
	
		<rect x="61" y="1181.1" transform="matrix(-0.5808 -0.814 0.814 -0.5808 -610.0188 2059.4785)" class="st0tree" width="328.4" height="11.4"/>
	
		<rect x="328" y="1183" transform="matrix(0.5808 -0.814 0.814 0.5808 -762.2338 897.0304)" class="st0tree" width="323.9" height="11.4"/>
	
		<rect x="327.7" y="452.1" transform="matrix(-8.913050e-010 1 -1 -8.913050e-010 813.3898 102.15)" class="st0tree" width="55.9" height="11.4"/>
	
		<rect x="294.1" y="229.5" transform="matrix(-4.049438e-010 1 -1 -4.049438e-010 590.7166 -120.4132)" class="st0tree" width="123" height="11.4"/>
	
		<rect x="411.4" y="417.3" transform="matrix(0.894 0.448 -0.448 0.894 240.878 -172.475)" class="st0tree" width="147.3" height="11.4"/>
	<rect x="149" y="416" transform="matrix(-0.894 0.448 -0.448 -0.894 616.1133 697.686)" class="st0tree" width="153" height="11.4"/>
	
		<rect x="61" y="289.5" transform="matrix(-0.5808 0.814 -0.814 -0.5808 596.3373 283.2891)" class="st0tree" width="328.4" height="11.4"/>
	
		<rect x="328" y="287.7" transform="matrix(0.5808 0.814 -0.814 0.5808 444.1584 -275.8493)" class="st0tree" width="324" height="11.4"/>
	
		<rect x="159.3" y="734.7" transform="matrix(-1 8.268884e-011 -8.268884e-011 -1 707.6212 1480.8168)" class="st0tree" width="389" height="11.4"/>
	
		<rect x="159.3" y="476.2" transform="matrix(-1 8.266664e-011 -8.266664e-011 -1 707.7483 963.8677)" class="st0tree" width="389.1" height="11.4"/>
	
		<rect x="32.7" y="865.3" transform="matrix(-4.130695e-010 -1 1 -4.130695e-010 -778.0765 964.006)" class="st0tree" width="120.5" height="11.4"/>
</g>
<g>
	<path class="st1tree" d="M355.9,107.6c6.4,0,6.4-10,0-10C349.4,97.6,349.4,107.6,355.9,107.6L355.9,107.6z"/>
</g>
<g>
	<path class="st1tree" d="M355.9,370.1c6.4,0,6.4-10,0-10C349.4,360.1,349.4,370.1,355.9,370.1L355.9,370.1z"/>
</g>
<g>
	<path class="st1tree" d="M93.4,487.1c6.4,0,6.4-10,0-10C86.9,477.1,86.9,487.1,93.4,487.1L93.4,487.1z"/>
</g>
<g>
	<path class="st1tree" d="M613.9,485.6c6.4,0,6.4-10,0-10C607.4,475.6,607.4,485.6,613.9,485.6L613.9,485.6z"/>
</g>
<g>
	<path class="st1tree" d="M354.4,626.6c6.4,0,6.4-10,0-10C347.9,616.6,347.9,626.6,354.4,626.6L354.4,626.6z"/>
</g>
<g>
	<path class="st1tree" d="M91.9,743.6c6.4,0,6.4-10,0-10C85.4,733.6,85.4,743.6,91.9,743.6L91.9,743.6z"/>
</g>
<g>
	<path class="st1tree" d="M612.4,745.1c6.4,0,6.4-10,0-10C605.9,735.1,605.9,745.1,612.4,745.1L612.4,745.1z"/>
</g>
<g>
	<path class="st1tree" d="M355.9,869.6c6.4,0,6.4-10,0-10C349.4,859.6,349.4,869.6,355.9,869.6L355.9,869.6z"/>
</g>
<g>
	<path class="st1tree" d="M93.4,1003.1c6.4,0,6.4-10,0-10C86.9,993.1,86.9,1003.1,93.4,1003.1L93.4,1003.1z"/>
</g>
<g>
	<path class="st1tree" d="M355.9,1121.6c6.4,0,6.4-10,0-10C349.4,1111.6,349.4,1121.6,355.9,1121.6L355.9,1121.6z"/>
</g>
<g>
	<path class="st1tree" d="M612.4,1001.6c6.4,0,6.4-10,0-10C605.9,991.6,605.9,1001.6,612.4,1001.6L612.4,1001.6z"/>
</g>
<g>
	<path class="st1tree" d="M354.4,1381.1c6.4,0,6.4-10,0-10C347.9,1371.1,347.9,1381.1,354.4,1381.1L354.4,1381.1z"/>
</g>
</svg>
