<?xml version="1.0" encoding="utf-8"?>
<!-- Generator: Adobe Illustrator 19.2.1, SVG Export Plug-In . SVG Version: 6.00 Build 0)  -->
<svg version="1.1" id="Layer_1" xmlns="http://www.w3.org/2000/svg" xmlns:xlink="http://www.w3.org/1999/xlink" x="0px" y="0px"
	 viewBox="0 0 153.7 152.2" style="enable-background:new 0 0 153.7 152.2;" xml:space="preserve">
<style type="text/css">
	.st0{fill:#771021;}
</style>
<g>
	<g>
		
			<rect x="65" y="122" transform="matrix(0.7071 -0.7071 0.7071 0.7071 -62.1439 103.6407)" class="st0" width="58.1" height="9.6"/>
	</g>
	<g>
		
			<rect x="24.3" y="71.2" transform="matrix(0.7071 -0.7071 0.7071 0.7071 -31.0337 77.1235)" class="st0" width="106.5" height="9.6"/>
	</g>
	<g>
		
			<rect x="72.8" y="23.8" transform="matrix(0.7071 -0.7071 0.7071 0.7071 -31.0787 77.1766)" class="st0" width="9.6" height="104.7"/>
	</g>
	<g>
		
			<rect x="82.8" y="-0.3" transform="matrix(0.7071 -0.7071 0.7071 0.7071 13.0458 67.1734)" class="st0" width="9.6" height="36.4"/>
	</g>
	<g>
		<rect x="1" y="62.2" transform="matrix(0.7071 -0.7071 0.7071 0.7071 -41.7282 33.3484)" class="st0" width="36.8" height="9.6"/>
	</g>
	<g>
		
			<rect x="117" y="80.3" transform="matrix(0.7071 -0.7071 0.7071 0.7071 -20.4451 120.8646)" class="st0" width="37.3" height="9.6"/>
	</g>
	<g>
		
			<rect x="32.1" y="20.6" transform="matrix(0.7071 -0.7071 0.7071 0.7071 -7.632185e-002 50.6694)" class="st0" width="58.1" height="9.6"/>
	</g>
	<g>
		<rect x="124" y="30" transform="matrix(0.7071 -0.7071 0.7071 0.7071 -3.6613 108.2032)" class="st0" width="9.6" height="57"/>
	</g>
	<g>
		
			<rect x="62.7" y="116.4" transform="matrix(0.7071 -0.7071 0.7071 0.7071 -75.3646 87.1359)" class="st0" width="9.6" height="36.4"/>
	</g>
	<g>
		
			<rect x="21.8" y="64.9" transform="matrix(0.7071 -0.7071 0.7071 0.7071 -58.3821 46.1944)" class="st0" width="9.6" height="57.3"/>
	</g>
</g>
</svg>
