<?xml version="1.0" encoding="utf-8"?>
<!-- Generator: Adobe Illustrator 19.2.1, SVG Export Plug-In . SVG Version: 6.00 Build 0)  -->
<svg version="1.1" id="Layer_1" xmlns="http://www.w3.org/2000/svg" xmlns:xlink="http://www.w3.org/1999/xlink" x="0px" y="0px"
	 viewBox="0 0 198 150.8" style="enable-background:new 0 0 198 150.8;" xml:space="preserve">
<style type="text/css">
	.st0{fill:#77011e;}
</style>
<g>
	<g>
		
			<rect x="106.6" y="89.6" transform="matrix(0.7071 0.7071 -0.7071 0.7071 108.9375 -45.7911)" class="st0" width="6.3" height="38"/>
	</g>
	<g>
		
			<rect x="95.8" y="40.5" transform="matrix(0.7071 0.7071 -0.7071 0.7071 82.2936 -47.9009)" class="st0" width="6.3" height="69.7"/>
	</g>
	<g>
		
			<rect x="95.8" y="41.1" transform="matrix(-0.7071 0.7071 -0.7071 -0.7071 222.2559 58.712)" class="st0" width="6.3" height="68.5"/>
	</g>
	<g>
		
			<rect x="102.5" y="25.3" transform="matrix(-0.7071 0.7071 -0.7071 -0.7071 206.5546 -11.1369)" class="st0" width="6.3" height="23.8"/>
	</g>
	<g>
		
			<rect x="57.7" y="57.4" transform="matrix(0.7071 0.7071 -0.7071 0.7071 66.9766 -22.6649)" class="st0" width="6.3" height="24.1"/>
	</g>
	<g>
		
			<rect x="133.8" y="69.1" transform="matrix(0.7071 0.7071 -0.7071 0.7071 97.6552 -73.029)" class="st0" width="6.3" height="24.4"/>
	</g>
	<g>
		
			<rect x="85.1" y="23.2" transform="matrix(0.7071 0.7071 -0.7071 0.7071 55.6496 -50.0107)" class="st0" width="6.3" height="38"/>
	</g>
	<g>
		
			<rect x="129.4" y="45.3" transform="matrix(-0.7071 0.7071 -0.7071 -0.7071 271.4396 15.3844)" class="st0" width="6.3" height="37.3"/>
	</g>
	<g>
		
			<rect x="89.2" y="101.7" transform="matrix(-0.7071 0.7071 -0.7071 -0.7071 238.0112 128.674)" class="st0" width="6.3" height="23.8"/>
	</g>
	<g>
		
			<rect x="62.4" y="68.1" transform="matrix(-0.7071 0.7071 -0.7071 -0.7071 173.3568 101.8933)" class="st0" width="6.3" height="37.5"/>
	</g>
</g>
</svg>
