<?xml version="1.0" encoding="utf-8"?>
<!-- Generator: Adobe Illustrator 19.2.1, SVG Export Plug-In . SVG Version: 6.00 Build 0)  -->
<svg version="1.1" id="Layer_1" xmlns="http://www.w3.org/2000/svg" xmlns:xlink="http://www.w3.org/1999/xlink" x="0px" y="0px"
	 viewBox="0 0 198 150.8" style="enable-background:new 0 0 198 150.8;" xml:space="preserve">
<style type="text/css">
	.st0{fill:#77011e;}
</style>
<g>
	<g>
		<g>
			<path class="st0" d="M99,50.5c-6.7,0-12.2-5.5-12.2-12.2c0-6.7,5.5-12.2,12.2-12.2s12.2,5.5,12.2,12.2
				C111.2,45.1,105.7,50.5,99,50.5z M99,30.9c-4.1,0-7.4,3.3-7.4,7.4c0,4.1,3.3,7.4,7.4,7.4c4.1,0,7.4-3.3,7.4-7.4
				C106.4,34.3,103,30.9,99,30.9z"/>
		</g>
	</g>
	<g>
		<g>
			<path class="st0" d="M81.7,71.6c-6.7,0-12.2-5.5-12.2-12.2S75,47.2,81.7,47.2c6.7,0,12.2,5.5,12.2,12.2S88.5,71.6,81.7,71.6z
				 M81.7,52c-4.1,0-7.4,3.3-7.4,7.4s3.3,7.4,7.4,7.4c4.1,0,7.4-3.3,7.4-7.4S85.8,52,81.7,52z"/>
		</g>
	</g>
	<g>
		<g>
			<path class="st0" d="M116.3,71.6c-6.7,0-12.2-5.5-12.2-12.2s5.5-12.2,12.2-12.2c6.7,0,12.2,5.5,12.2,12.2S123,71.6,116.3,71.6z
				 M116.3,52c-4.1,0-7.4,3.3-7.4,7.4s3.3,7.4,7.4,7.4c4.1,0,7.4-3.3,7.4-7.4S120.4,52,116.3,52z"/>
		</g>
	</g>
	<g>
		<g>
			<polygon class="st0" points="72.5,124.6 79.6,124.6 99,73.7 118.8,124.6 125.4,124.6 99,55.5 			"/>
		</g>
	</g>
	<g>
		<g>
			<polygon class="st0" points="85.8,124.6 99,89.7 112,124.6 105.4,124.6 99,108.6 92.3,124.6 			"/>
		</g>
	</g>
</g>
</svg>
