<?xml version="1.0" encoding="utf-8"?>
<!-- Generator: Adobe Illustrator 19.2.1, SVG Export Plug-In . SVG Version: 6.00 Build 0)  -->
<svg version="1.1" id="Layer_1" xmlns="http://www.w3.org/2000/svg" xmlns:xlink="http://www.w3.org/1999/xlink" x="0px" y="0px"
	 viewBox="0 0 181.9 181.9" style="enable-background:new 0 0 181.9 181.9;" xml:space="preserve">
<style type="text/css">
	.st0{fill:#771021;}
</style>
<g>
	<g>
		<g>
			<path class="st0" d="M91.9,49.3c-11.6,0-21.2-9.5-21.2-21.2S80.3,7,91.9,7s21.2,9.5,21.2,21.2C113.1,40,103.6,49.3,91.9,49.3z
				 M91.9,15.3c-7.1,0-12.8,5.7-12.8,12.8S84.8,41,91.9,41c7.1,0,12.8-5.7,12.8-12.8C104.8,21.2,98.9,15.3,91.9,15.3z"/>
		</g>
	</g>
	<g>
		<g>
			<path class="st0" d="M61.9,85.9c-11.6,0-21.2-9.5-21.2-21.2s9.5-21.2,21.2-21.2s21.2,9.5,21.2,21.2S73.7,85.9,61.9,85.9z
				 M61.9,51.9c-7.1,0-12.8,5.7-12.8,12.8c0,7.1,5.7,12.8,12.8,12.8s12.8-5.7,12.8-12.8C74.8,57.7,69,51.9,61.9,51.9z"/>
		</g>
	</g>
	<g>
		<g>
			<path class="st0" d="M122,85.9c-11.6,0-21.2-9.5-21.2-21.2s9.5-21.2,21.2-21.2s21.2,9.5,21.2,21.2S133.6,85.9,122,85.9z
				 M122,51.9c-7.1,0-12.8,5.7-12.8,12.8c0,7.1,5.7,12.8,12.8,12.8s12.8-5.7,12.8-12.8C134.8,57.7,129.1,51.9,122,51.9z"/>
		</g>
	</g>
	<g>
		<g>
			<polygon class="st0" points="46,177.9 58.3,177.9 91.9,89.6 126.3,177.9 137.7,177.9 91.9,58 			"/>
		</g>
	</g>
	<g>
		<g>
			<polygon class="st0" points="69,177.9 91.9,117.3 114.5,177.9 103,177.9 91.9,150.1 80.3,177.9 			"/>
		</g>
	</g>
</g>
</svg>
