<?xml version="1.0" encoding="utf-8"?>
<!-- Generator: Adobe Illustrator 19.2.1, SVG Export Plug-In . SVG Version: 6.00 Build 0)  -->
<svg version="1.1" id="Layer_1" xmlns="http://www.w3.org/2000/svg" xmlns:xlink="http://www.w3.org/1999/xlink" x="0px" y="0px"
	 viewBox="0 0 150.8 150.8" style="enable-background:new 0 0 150.8 150.8;" xml:space="preserve">
<style type="text/css">
	.st0{fill:#771021;}
</style>
<g>
	<g>
		<g>
			
				<rect x="92.5" y="117.3" transform="matrix(0.7071 -0.7071 0.7071 0.7071 -51.5927 122.6764)" class="st0" width="59.7" height="12.7"/>
		</g>
		<g>
			
				<rect x="-2.3" y="22.6" transform="matrix(0.7071 -0.7071 0.7071 0.7071 -12.3772 27.9578)" class="st0" width="59.7" height="12.7"/>
		</g>
		<g>
			
				<rect x="69" y="-20.1" transform="matrix(0.7071 -0.7071 0.7071 0.7071 -32.2213 75.81)" class="st0" width="12.7" height="193.8"/>
		</g>
	</g>
	<g>
		<g>
			
				<rect x="21.7" y="93.8" transform="matrix(0.7071 -0.7071 0.7071 0.7071 -79.207 56.0282)" class="st0" width="12.7" height="59.7"/>
		</g>
		<g>
			
				<rect x="116.3" y="-0.8" transform="matrix(0.7071 -0.7071 0.7071 0.7071 15.3974 95.2661)" class="st0" width="12.7" height="59.7"/>
		</g>
		<g>
			
				<rect x="-21.9" y="70.3" transform="matrix(0.7071 -0.7071 0.7071 0.7071 -32.2498 75.47)" class="st0" width="193.8" height="12.7"/>
		</g>
	</g>
</g>
</svg>
