<?xml version="1.0" encoding="utf-8"?>
<!-- Generator: Adobe Illustrator 19.2.1, SVG Export Plug-In . SVG Version: 6.00 Build 0)  -->
<svg version="1.1" id="Layer_1" xmlns="http://www.w3.org/2000/svg" xmlns:xlink="http://www.w3.org/1999/xlink" x="0px" y="0px"
	 viewBox="0 0 198 150.8" style="enable-background:new 0 0 198 150.8;" xml:space="preserve">
<style type="text/css">
	.st0{fill:#77011e;}
</style>
<g>
	<g>
		<g>
			
				<rect x="118.9" y="83.8" transform="matrix(0.7071 0.7071 -0.7071 0.7071 105.2844 -57.4599)" class="st0" width="6.2" height="29.1"/>
		</g>
		<g>
			
				<rect x="72.7" y="37.6" transform="matrix(0.7071 0.7071 -0.7071 0.7071 59.0861 -38.307)" class="st0" width="6.2" height="29.1"/>
		</g>
		<g>
			
				<rect x="96" y="28.2" transform="matrix(-0.7071 0.7071 -0.7071 -0.7071 222.565 58.7944)" class="st0" width="6.2" height="94.5"/>
		</g>
	</g>
	<g>
		<g>
			
				<rect x="72.9" y="83.8" transform="matrix(-0.7071 0.7071 -0.7071 -0.7071 199.3206 114.1578)" class="st0" width="6.2" height="29.1"/>
		</g>
		<g>
			
				<rect x="119.2" y="37.6" transform="matrix(-0.7071 0.7071 -0.7071 -0.7071 245.5598 2.6254)" class="st0" width="6.2" height="29.1"/>
		</g>
		<g>
			
				<rect x="95.8" y="28.2" transform="matrix(0.7071 0.7071 -0.7071 0.7071 82.3521 -47.8317)" class="st0" width="6.2" height="94.5"/>
		</g>
	</g>
</g>
</svg>
