<?xml version="1.0" encoding="utf-8"?>
<!-- Generator: Adobe Illustrator 19.2.1, SVG Export Plug-In . SVG Version: 6.00 Build 0)  -->
<svg version="1.1" id="Layer_1" xmlns="http://www.w3.org/2000/svg" xmlns:xlink="http://www.w3.org/1999/xlink" x="0px" y="0px"
	 viewBox="0 0 198 198" style="enable-background:new 0 0 198 198;" xml:space="preserve">
<style type="text/css">
	.st0{fill:#771021;}
</style>
<path class="st0" d="M198,71.3l-7.9-7.9l-27.4,27.4L139,67l0,0l-7.9-7.9l0,0l-23.8-23.8l0,0l-7.9-7.9l0,0l0,0l-7.9,7.9l0,0L68,59.1
	l0,0L60.1,67l0,0L35.5,91.7L8.3,64.5l-7.9,7.9l27.2,27.4L1.1,126l7.9,7.9l26.5-26.5l63.1,63.1l7.9-7.9l0,0l24.7-24.7l0,0l7.9-7.9
	l0,0l23.8-23.8l27.4,27.4l7.9-7.9l-27.4-27.2L198,71.3z M99.5,43.4l23.8,23.8L99.5,90.8L75.9,67.2L99.5,43.4z M68,75.1l23.8,23.8
	l-24.9,24.5L43.3,99.7L68,75.1z M98.6,155L75,131.2l24.7-24.7l23.8,23.8L98.6,155z M131.1,122.4l-23.8-23.8l23.8-23.8l23.8,23.8
	L131.1,122.4z"/>
</svg>
