<?xml version="1.0" encoding="utf-8"?>
<!-- Generator: Adobe Illustrator 19.2.1, SVG Export Plug-In . SVG Version: 6.00 Build 0)  -->
<svg version="1.1" id="Layer_1" xmlns="http://www.w3.org/2000/svg" xmlns:xlink="http://www.w3.org/1999/xlink" x="0px" y="0px"
	 viewBox="0 0 198 150.8" style="enable-background:new 0 0 198 150.8;" xml:space="preserve">
<style type="text/css">
	.st0{fill:#77011e;}
</style>
<path class="st0" d="M154.3,59.8l-4.4-4.4l-15.3,15.3l-13.3-13.3l0,0l-4.4-4.4l0,0l-13.3-13.3l0,0l-4.4-4.4l0,0l0,0l-4.4,4.4l0,0
	L81.6,53l0,0l-4.4,4.4l0,0L63.4,71.2L48.2,56l-4.4,4.4L59,75.7L44.2,90.4l4.4,4.4l14.8-14.8l35.3,35.3l4.4-4.4l0,0l13.8-13.8l0,0
	l4.4-4.4l0,0l13.3-13.3l15.3,15.3l4.4-4.4L139,75.1L154.3,59.8z M99.2,44.2l13.3,13.3L99.2,70.7L86,57.5L99.2,44.2z M81.6,61.9
	l13.3,13.3L81,88.9L67.8,75.7L81.6,61.9z M98.7,106.6L85.5,93.3l13.8-13.8l13.3,13.3L98.7,106.6z M116.9,88.4l-13.3-13.3l13.3-13.3
	l13.3,13.3L116.9,88.4z"/>
</svg>
