<?xml version="1.0" encoding="utf-8"?>
<!-- Generator: Adobe Illustrator 19.2.1, SVG Export Plug-In . SVG Version: 6.00 Build 0)  -->
<svg version="1.1" id="Layer_1" xmlns="http://www.w3.org/2000/svg" xmlns:xlink="http://www.w3.org/1999/xlink" x="0px" y="0px"
	 viewBox="0 0 198 150.8" style="enable-background:new 0 0 198 150.8;" xml:space="preserve">
<style type="text/css">
	.st0{fill:#77011e;}
</style>
<g>
	<g>
		
			<rect x="81" y="19.2" transform="matrix(0.7071 0.7071 -0.7071 0.7071 68.1074 -42.0437)" class="st0" width="7.6" height="84.1"/>
	</g>
	<g>
		
			<rect x="109.4" y="47.6" transform="matrix(0.7071 0.7071 -0.7071 0.7071 96.5173 -53.8115)" class="st0" width="7.6" height="84.1"/>
	</g>
	<g>
		
			<rect x="74.4" y="82.9" transform="matrix(0.7071 0.7071 -0.7071 0.7071 90.6243 -27.2147)" class="st0" width="7.6" height="25.7"/>
	</g>
	<g>
		
			<rect x="109.4" y="19.2" transform="matrix(-0.7071 0.7071 -0.7071 -0.7071 236.5385 24.4047)" class="st0" width="7.6" height="84.1"/>
	</g>
	<g>
		
			<rect x="115.9" y="83.3" transform="matrix(-0.7071 0.7071 -0.7071 -0.7071 272.2314 79.3669)" class="st0" width="7.6" height="25.6"/>
	</g>
	<g>
		
			<rect x="81" y="47.6" transform="matrix(-0.7071 0.7071 -0.7071 -0.7071 208.1286 92.9923)" class="st0" width="7.6" height="84.1"/>
	</g>
	<g>
		
			<rect x="74.6" y="41.9" transform="matrix(-0.7071 0.7071 -0.7071 -0.7071 172.5566 38.0802)" class="st0" width="7.6" height="25.7"/>
	</g>
	<g>
		
			<rect x="101.1" y="60.4" transform="matrix(-0.7071 0.7071 -0.7071 -0.7071 227.3305 46.4142)" class="st0" width="6" height="19.7"/>
	</g>
	<g>
		
			<rect x="91.3" y="70.2" transform="matrix(-0.7071 0.7071 -0.7071 -0.7071 217.5271 70.0817)" class="st0" width="6" height="19.7"/>
	</g>
	<g>
		
			<rect x="91.3" y="60.4" transform="matrix(0.7071 0.7071 -0.7071 0.7071 77.3066 -46.0571)" class="st0" width="6" height="19.7"/>
	</g>
	<g>
		<rect x="101.1" y="70.2" transform="matrix(0.7071 0.7071 -0.7071 0.7071 87.11 -50.1178)" class="st0" width="6" height="19.7"/>
	</g>
	<g>
		
			<rect x="115.6" y="41.7" transform="matrix(0.7071 0.7071 -0.7071 0.7071 73.5436 -68.4512)" class="st0" width="7.6" height="25.7"/>
	</g>
</g>
</svg>
