<?xml version="1.0" encoding="utf-8"?>
<!-- Generator: Adobe Illustrator 19.2.1, SVG Export Plug-In . SVG Version: 6.00 Build 0)  -->
<svg version="1.1" id="Layer_1" xmlns="http://www.w3.org/2000/svg" xmlns:xlink="http://www.w3.org/1999/xlink" x="0px" y="0px"
	 viewBox="0 0 208 205" style="enable-background:new 0 0 208 205;" xml:space="preserve">
<style type="text/css">
	.st0{fill:#771021;}
</style>
<g>
	<g>
		
			<rect x="-10.2" y="67.6" transform="matrix(0.7071 -0.7071 0.7071 0.7071 -31.0909 75.7855)" class="st0" width="172.3" height="15.6"/>
	</g>
	<g>
		
			<rect x="48" y="125.8" transform="matrix(0.7071 -0.7071 0.7071 0.7071 -55.1755 133.9725)" class="st0" width="172.3" height="15.6"/>
	</g>
	<g>
		
			<rect x="36.2" y="138.4" transform="matrix(0.7071 -0.7071 0.7071 0.7071 -85.0721 87.0387)" class="st0" width="52.6" height="15.6"/>
	</g>
	<g>
		
			<rect x="126.4" y="-10.9" transform="matrix(0.7071 -0.7071 0.7071 0.7071 -13.9067 116.9045)" class="st0" width="15.6" height="172.3"/>
	</g>
	<g>
		
			<rect x="139.6" y="120.5" transform="matrix(0.7071 -0.7071 0.7071 0.7071 -60.6084 147.2019)" class="st0" width="15.6" height="52.4"/>
	</g>
	<g>
		
			<rect x="68.2" y="47.3" transform="matrix(0.7071 -0.7071 0.7071 0.7071 -72.1232 92.8078)" class="st0" width="15.6" height="172.3"/>
	</g>
	<g>
		
			<rect x="55.1" y="35.9" transform="matrix(0.7071 -0.7071 0.7071 0.7071 -25.5962 62.7281)" class="st0" width="15.6" height="52.6"/>
	</g>
	<g>
		
			<rect x="109.3" y="73.9" transform="matrix(0.7071 -0.7071 0.7071 0.7071 -32.7305 109.1959)" class="st0" width="12.3" height="40.4"/>
	</g>
	<g>
		
			<rect x="89.2" y="94" transform="matrix(0.7071 -0.7071 0.7071 0.7071 -52.8192 100.8808)" class="st0" width="12.3" height="40.4"/>
	</g>
	<g>
		
			<rect x="75.3" y="87.9" transform="matrix(0.7071 -0.7071 0.7071 0.7071 -38.4941 95.0628)" class="st0" width="40.4" height="12.3"/>
	</g>
	<g>
		
			<rect x="95.4" y="107.9" transform="matrix(0.7071 -0.7071 0.7071 0.7071 -46.805 115.1414)" class="st0" width="40.4" height="12.3"/>
	</g>
	<g>
		
			<rect x="120.6" y="54" transform="matrix(0.7071 -0.7071 0.7071 0.7071 -0.6335 121.9518)" class="st0" width="52.6" height="15.6"/>
	</g>
</g>
</svg>
