<?xml version="1.0" encoding="utf-8"?>
<!-- Generator: Adobe Illustrator 19.2.1, SVG Export Plug-In . SVG Version: 6.00 Build 0)  -->
<svg version="1.1" id="Layer_1" xmlns="http://www.w3.org/2000/svg" xmlns:xlink="http://www.w3.org/1999/xlink" x="0px" y="0px"
	 viewBox="0 0 198 150.8" style="enable-background:new 0 0 198 150.8;" xml:space="preserve">
<style type="text/css">
	.st0{fill:#77011e;}
</style>
<g>
	<g>
		<rect x="101.4" y="28.3" class="st0" width="6.7" height="94.1"/>
	</g>
	<g>
		
			<rect x="117.8" y="66.7" transform="matrix(0.5902 0.8073 -0.8073 0.5902 120.4384 -61.9143)" class="st0" width="6.7" height="41.9"/>
	</g>
	<g>
		
			<rect x="117.8" y="45.5" transform="matrix(0.5902 0.8073 -0.8073 0.5902 103.3369 -70.5962)" class="st0" width="6.7" height="41.9"/>
	</g>
	<g>
		
			<rect x="117.8" y="24.4" transform="matrix(0.5902 0.8073 -0.8073 0.5902 86.2355 -79.2782)" class="st0" width="6.7" height="41.9"/>
	</g>
	<g>
		
			<rect x="85.8" y="66.7" transform="matrix(-0.5902 0.8073 -0.8073 -0.5902 212.6409 67.3704)" class="st0" width="6.7" height="41.9"/>
	</g>
	<g>
		
			<rect x="85.8" y="45.5" transform="matrix(-0.5902 0.8073 -0.8073 -0.5902 195.5395 33.6844)" class="st0" width="6.7" height="41.9"/>
	</g>
	<g>
		
			<rect x="85.8" y="24.4" transform="matrix(-0.5902 0.8073 -0.8073 -0.5902 178.4381 -1.623440e-003)" class="st0" width="6.7" height="41.9"/>
	</g>
</g>
</svg>
