<?xml version="1.0" encoding="utf-8"?>
<!-- Generator: Adobe Illustrator 19.2.1, SVG Export Plug-In . SVG Version: 6.00 Build 0)  -->
<svg version="1.1" id="Layer_1" xmlns="http://www.w3.org/2000/svg" xmlns:xlink="http://www.w3.org/1999/xlink" x="0px" y="0px"
	 viewBox="0 0 150.8 150.8" style="enable-background:new 0 0 150.8 150.8;" xml:space="preserve">
<style type="text/css">
	.st0{fill:#771021;}
</style>
<g>
	<g>
		<rect x="70.8" y="1" class="st0" width="10.6" height="148.7"/>
	</g>
	<g>
		
			<rect x="68.9" y="89.4" transform="matrix(0.8073 -0.5902 0.5902 0.8073 -36.2472 78.4741)" class="st0" width="66.2" height="10.6"/>
	</g>
	<g>
		
			<rect x="68.9" y="56" transform="matrix(0.8073 -0.5902 0.5902 0.8073 -16.4787 72.0322)" class="st0" width="66.2" height="10.6"/>
	</g>
	<g>
		
			<rect x="68.8" y="22.6" transform="matrix(0.8073 -0.5902 0.5902 0.8073 3.2104 65.5331)" class="st0" width="66.2" height="10.6"/>
	</g>
	<g>
		
			<rect x="46.3" y="61.6" transform="matrix(0.5902 -0.8073 0.8073 0.5902 -55.3177 80.4714)" class="st0" width="10.6" height="66.2"/>
	</g>
	<g>
		
			<rect x="46.3" y="28.2" transform="matrix(0.5902 -0.8073 0.8073 0.5902 -28.3003 66.7771)" class="st0" width="10.6" height="66.2"/>
	</g>
	<g>
		
			<rect x="46.2" y="-5.4" transform="matrix(0.5902 -0.8073 0.8073 0.5902 -1.2599 52.9416)" class="st0" width="10.6" height="66.2"/>
	</g>
</g>
</svg>
