<?xml version="1.0" encoding="utf-8"?>
<!-- Generator: Adobe Illustrator 19.2.1, SVG Export Plug-In . SVG Version: 6.00 Build 0)  -->
<svg version="1.1" id="Layer_1" xmlns="http://www.w3.org/2000/svg" xmlns:xlink="http://www.w3.org/1999/xlink" x="0px" y="0px"
	 viewBox="0 0 198 150.8" style="enable-background:new 0 0 198 150.8;" xml:space="preserve">
<style type="text/css">
	.st0{fill:#77011e;}
</style>
<g>
	<g>
		<rect x="102.7" y="42.2" class="st0" width="7.4" height="66.5"/>
	</g>
	<g>
		
			<rect x="117.5" y="27.4" transform="matrix(2.290150e-011 1 -1 2.290150e-011 167.0194 -75.3198)" class="st0" width="7.4" height="36.9"/>
	</g>
	<g>
		
			<rect x="73.2" y="27.4" transform="matrix(2.167048e-011 1 -1 2.167048e-011 122.7 -31.0004)" class="st0" width="7.4" height="36.9"/>
	</g>
	<g>
		
			<rect x="73.2" y="86.5" transform="matrix(2.167048e-011 1 -1 2.167048e-011 181.7925 28.0921)" class="st0" width="7.4" height="36.9"/>
	</g>
	<g>
		
			<rect x="95.3" y="49.5" transform="matrix(3.102833e-011 1 -1 3.102833e-011 174.4059 -23.6139)" class="st0" width="7.4" height="51.7"/>
	</g>
	<g>
		
			<rect x="117.5" y="86.5" transform="matrix(2.290150e-011 1 -1 2.290150e-011 226.1119 -16.2273)" class="st0" width="7.4" height="36.9"/>
	</g>
	<g>
		<rect x="87.9" y="42.2" class="st0" width="7.4" height="66.5"/>
	</g>
</g>
</svg>
