<?xml version="1.0" encoding="utf-8"?>
<!-- Generator: Adobe Illustrator 19.2.1, SVG Export Plug-In . SVG Version: 6.00 Build 0)  -->
<svg version="1.1" id="Layer_1" xmlns="http://www.w3.org/2000/svg" xmlns:xlink="http://www.w3.org/1999/xlink" x="0px" y="0px"
	 viewBox="0 0 198 150.8" style="enable-background:new 0 0 198 150.8;" xml:space="preserve">
<style type="text/css">
	.st0{fill:#77011e;}
</style>
<g>
	<g>
		
			<rect x="96" y="36.5" transform="matrix(0.7071 0.7071 -0.7071 0.7071 82.1604 -48.0702)" class="st0" width="6.2" height="77.3"/>
	</g>
	<g>
		
			<rect x="60.9" y="40.9" transform="matrix(0.7071 0.7071 -0.7071 0.7071 63.521 -26.7484)" class="st0" width="6.2" height="44.7"/>
	</g>
	<g>
		
			<rect x="130.6" y="64.4" transform="matrix(0.7071 0.7071 -0.7071 0.7071 100.7852 -68.9969)" class="st0" width="6.2" height="45.5"/>
	</g>
	<g>
		
			<rect x="82.7" y="58.1" transform="matrix(0.7071 0.7071 -0.7071 0.7071 74.2069 -40.3156)" class="st0" width="6.2" height="22.7"/>
	</g>
	<g>
		
			<rect x="108.8" y="70.1" transform="matrix(0.7071 0.7071 -0.7071 0.7071 90.3596 -55.2589)" class="st0" width="6.2" height="22.7"/>
	</g>
	<g>
		
			<rect x="81.5" y="43.8" transform="matrix(-0.7071 0.7071 -0.7071 -0.7071 184.4483 36.8163)" class="st0" width="6.2" height="25.7"/>
	</g>
	<g>
		
			<rect x="109.8" y="81.4" transform="matrix(-0.7071 0.7071 -0.7071 -0.7071 259.3477 81.0167)" class="st0" width="6.2" height="25.7"/>
	</g>
	<g>
		
			<rect x="59" y="69" transform="matrix(-0.7071 0.7071 -0.7071 -0.7071 168.6694 107.339)" class="st0" width="6.2" height="39.2"/>
	</g>
	<g>
		
			<rect x="132.8" y="42" transform="matrix(-0.7071 0.7071 -0.7071 -0.7071 275.6336 9.0844)" class="st0" width="6.2" height="39.2"/>
	</g>
</g>
</svg>
