<?xml version="1.0" encoding="utf-8"?>
<!-- Generator: Adobe Illustrator 19.2.1, SVG Export Plug-In . SVG Version: 6.00 Build 0)  -->
<svg version="1.1" id="Layer_1" xmlns="http://www.w3.org/2000/svg" xmlns:xlink="http://www.w3.org/1999/xlink" x="0px" y="0px"
	 viewBox="0 0 208 208" style="enable-background:new 0 0 208 208;" xml:space="preserve">
<style type="text/css">
	.st0{fill:#771021;}
</style>
<g>
	<g>
		
			<rect x="31.2" y="94.5" transform="matrix(0.7071 -0.7071 0.7071 0.7071 -40.4926 103.0349)" class="st0" width="145.8" height="11.7"/>
	</g>
	<g>
		
			<rect x="-4.2" y="72.1" transform="matrix(0.7071 -0.7071 0.7071 0.7071 -43.9663 49.7007)" class="st0" width="84.3" height="11.7"/>
	</g>
	<g>
		
			<rect x="126.5" y="117.2" transform="matrix(0.7071 -0.7071 0.7071 0.7071 -37.4111 155.8457)" class="st0" width="85.8" height="11.7"/>
	</g>
	<g>
		
			<rect x="57.6" y="83.8" transform="matrix(0.7071 -0.7071 0.7071 0.7071 -40.2793 82.1161)" class="st0" width="42.8" height="11.7"/>
	</g>
	<g>
		
			<rect x="106.9" y="106.5" transform="matrix(0.7071 -0.7071 0.7071 0.7071 -41.8492 123.5957)" class="st0" width="42.8" height="11.7"/>
	</g>
	<g>
		
			<rect x="70.9" y="41.1" transform="matrix(0.7071 -0.7071 0.7071 0.7071 -23.7555 73.3999)" class="st0" width="11.7" height="48.5"/>
	</g>
	<g>
		
			<rect x="124.3" y="112.1" transform="matrix(0.7071 -0.7071 0.7071 0.7071 -58.3102 131.9476)" class="st0" width="11.7" height="48.5"/>
	</g>
	<g>
		
			<rect x="28.5" y="88.8" transform="matrix(0.7071 -0.7071 0.7071 0.7071 -78.8861 61.1298)" class="st0" width="11.7" height="74"/>
	</g>
	<g>
		
			<rect x="167.9" y="37.9" transform="matrix(0.7071 -0.7071 0.7071 0.7071 -2.0727 144.7727)" class="st0" width="11.7" height="74"/>
	</g>
</g>
</svg>
