<?xml version="1.0" encoding="utf-8"?>
<!-- Generator: Adobe Illustrator 19.2.1, SVG Export Plug-In . SVG Version: 6.00 Build 0)  -->
<svg version="1.1" id="Layer_1" xmlns="http://www.w3.org/2000/svg" xmlns:xlink="http://www.w3.org/1999/xlink" x="0px" y="0px"
	 viewBox="0 0 198 150.8" style="enable-background:new 0 0 198 150.8;" xml:space="preserve">
<style type="text/css">
	.st0{fill:#77011e;}
</style>
<g>
	<g>
		<g>
			<g>
				
					<rect x="132.1" y="87.2" transform="matrix(0.7071 0.7071 -0.7071 0.7071 113.7882 -65.1906)" class="st0" width="7" height="35.2"/>
			</g>
			<g>
				
					<rect x="114.7" y="67.7" transform="matrix(0.7071 0.7071 -0.7071 0.7071 94.9778 -58.6071)" class="st0" width="7" height="35.2"/>
			</g>
			<g>
				
					<rect x="112.9" y="89" transform="matrix(-0.7071 0.7071 -0.7071 -0.7071 273.297 97.8812)" class="st0" width="7" height="33"/>
			</g>
		</g>
		<g>
			<g>
				
					<rect x="132.1" y="28.4" transform="matrix(0.7071 -0.7071 0.7071 0.7071 7.1621 109.3566)" class="st0" width="7" height="35.2"/>
			</g>
			<g>
				
					<rect x="114.7" y="47.8" transform="matrix(0.7071 -0.7071 0.7071 0.7071 -11.6483 102.7731)" class="st0" width="7" height="35.2"/>
			</g>
			<g>
				
					<rect x="112.9" y="28.8" transform="matrix(-0.7071 -0.7071 0.7071 -0.7071 166.6709 159.537)" class="st0" width="7" height="33"/>
			</g>
		</g>
	</g>
	<g>
		<g>
			<g>
				
					<rect x="58.9" y="87.2" transform="matrix(-0.7071 0.7071 -0.7071 -0.7071 180.6569 134.6879)" class="st0" width="7" height="35.2"/>
			</g>
			<g>
				
					<rect x="76.3" y="67.7" transform="matrix(-0.7071 0.7071 -0.7071 -0.7071 196.5508 89.2756)" class="st0" width="7" height="35.2"/>
			</g>
			<g>
				<rect x="78.1" y="89" transform="matrix(0.7071 0.7071 -0.7071 0.7071 98.5424 -26.8178)" class="st0" width="7" height="33"/>
			</g>
		</g>
		<g>
			<g>
				
					<rect x="58.9" y="28.4" transform="matrix(-0.7071 -0.7071 0.7071 -0.7071 74.0308 122.7303)" class="st0" width="7" height="35.2"/>
			</g>
			<g>
				
					<rect x="76.3" y="47.8" transform="matrix(-0.7071 -0.7071 0.7071 -0.7071 89.9247 168.1426)" class="st0" width="7" height="35.2"/>
			</g>
			<g>
				<rect x="78.1" y="28.8" transform="matrix(0.7071 -0.7071 0.7071 0.7071 -8.0837 70.9838)" class="st0" width="7" height="33"/>
			</g>
		</g>
	</g>
</g>
</svg>
