<?xml version="1.0" encoding="utf-8"?>
<!-- Generator: Adobe Illustrator 19.2.1, SVG Export Plug-In . SVG Version: 6.00 Build 0)  -->
<svg version="1.1" id="Layer_1" xmlns="http://www.w3.org/2000/svg" xmlns:xlink="http://www.w3.org/1999/xlink" x="0px" y="0px"
	 viewBox="0 0 166.5 166.5" style="enable-background:new 0 0 166.5 166.5;" xml:space="preserve">
<style type="text/css">
	.st0{fill:#771021;}
</style>
<g>
	<g>
		<g>
			<g>
				
					<rect x="113.7" y="124" transform="matrix(0.7071 -0.7071 0.7071 0.7071 -50.1726 137.7496)" class="st0" width="54.9" height="10.9"/>
			</g>
			<g>
				
					<rect x="86.7" y="93.5" transform="matrix(0.7071 -0.7071 0.7071 0.7071 -36.5608 109.7068)" class="st0" width="54.9" height="10.9"/>
			</g>
			<g>
				
					<rect x="105.8" y="104.9" transform="matrix(0.7071 -0.7071 0.7071 0.7071 -59.8142 116.9465)" class="st0" width="10.9" height="51.5"/>
			</g>
		</g>
		<g>
			<g>
				
					<rect x="135.7" y="10.2" transform="matrix(0.7071 -0.7071 0.7071 0.7071 14.7269 110.8732)" class="st0" width="10.9" height="54.9"/>
			</g>
			<g>
				
					<rect x="108.6" y="40.5" transform="matrix(0.7071 -0.7071 0.7071 0.7071 -14.6816 100.5586)" class="st0" width="10.9" height="54.9"/>
			</g>
			<g>
				
					<rect x="85.5" y="30.9" transform="matrix(0.7071 -0.7071 0.7071 0.7071 6.8447 89.3414)" class="st0" width="51.5" height="10.9"/>
			</g>
		</g>
	</g>
	<g>
		<g>
			<g>
				
					<rect x="21.6" y="101.8" transform="matrix(0.7071 -0.7071 0.7071 0.7071 -83.5122 56.9816)" class="st0" width="10.9" height="54.9"/>
			</g>
			<g>
				
					<rect x="48.7" y="71.7" transform="matrix(0.7071 -0.7071 0.7071 0.7071 -54.2413 67.3307)" class="st0" width="10.9" height="54.9"/>
			</g>
			<g>
				
					<rect x="31.3" y="125" transform="matrix(0.7071 -0.7071 0.7071 0.7071 -75.5821 78.5422)" class="st0" width="51.5" height="10.9"/>
			</g>
		</g>
		<g>
			<g>
				
					<rect x="-0.4" y="32.3" transform="matrix(0.7071 -0.7071 0.7071 0.7071 -18.7999 30.1828)" class="st0" width="54.9" height="10.9"/>
			</g>
			<g>
				
					<rect x="26.6" y="62.6" transform="matrix(0.7071 -0.7071 0.7071 0.7071 -32.29 58.1526)" class="st0" width="54.9" height="10.9"/>
			</g>
			<g>
				
					<rect x="51.6" y="10.8" transform="matrix(0.7071 -0.7071 0.7071 0.7071 -9.1718 51.04)" class="st0" width="10.9" height="51.5"/>
			</g>
		</g>
	</g>
</g>
</svg>
