<?xml version="1.0" encoding="utf-8"?>
<!-- Generator: Adobe Illustrator 19.2.1, SVG Export Plug-In . SVG Version: 6.00 Build 0)  -->
<svg version="1.1" id="Layer_1" xmlns="http://www.w3.org/2000/svg" xmlns:xlink="http://www.w3.org/1999/xlink" x="0px" y="0px"
	 viewBox="0 0 492 1020.1" style="enable-background:new 0 0 492 1020.1;" xml:space="preserve">
<style type="text/css">
	.st0{fill:#B06F22;}
</style>
<g>
	<g>
		<circle class="st0" cx="250.9" cy="75.7" r="49.6"/>
	</g>
	<g>
		<circle class="st0" cx="250.9" cy="255.5" r="49.6"/>
	</g>
	<g>
		<circle class="st0" cx="69" cy="336.9" r="49.6"/>
	</g>
	<g>
		<circle class="st0" cx="250.9" cy="434.3" r="49.6"/>
	</g>
	<g>
		<circle class="st0" cx="69" cy="516" r="49.6"/>
	</g>
	<g>
		<circle class="st0" cx="250.9" cy="602.6" r="49.6"/>
	</g>
	<g>
		<circle class="st0" cx="69" cy="694.9" r="49.6"/>
	</g>
	<g>
		<circle class="st0" cx="250.9" cy="777.6" r="49.6"/>
	</g>
	<g>
		<circle class="st0" cx="250.9" cy="956.7" r="49.6"/>
	</g>
	<g>
		<circle class="st0" cx="429.5" cy="337.8" r="49.6"/>
	</g>
	<g>
		<circle class="st0" cx="429.5" cy="516" r="49.6"/>
	</g>
	<g>
		<circle class="st0" cx="429.5" cy="694.9" r="49.6"/>
	</g>
	<g>
		
			<rect x="289.5" y="555.9" transform="matrix(0.894 -0.448 0.448 0.894 -214.7391 211.8437)" class="st0" width="102" height="7.9"/>
		<path class="st0" d="M295.4,590l-6-12l96.1-48.2l6,12L295.4,590z M296.8,580.4l1,2.1l86.2-43.2l-1-2.1L296.8,580.4z"/>
	</g>
	<g>
		
			<rect x="105.4" y="556" transform="matrix(-0.894 -0.448 0.448 -0.894 50.4712 1131.7582)" class="st0" width="107.3" height="7.9"/>
		<path class="st0" d="M206.5,591.2l-100.9-50.6l6-12l100.9,50.6L206.5,591.2z M113,538.2l91,45.6l1-2.1l-91-45.6L113,538.2z"/>
	</g>
	<g>
		<rect x="289.5" y="468" transform="matrix(0.894 0.448 -0.448 0.894 247.493 -102.5186)" class="st0" width="102" height="7.9"/>
		<path class="st0" d="M385.5,502l-96.1-48.2l6-12l96.1,48.2L385.5,502z M296.8,451.4l86.2,43.2l1-2.1l-86.2-43.2L296.8,451.4z"/>
	</g>
	<g>
		
			<rect x="105.4" y="468" transform="matrix(-0.894 0.448 -0.448 -0.894 512.7033 822.5828)" class="st0" width="107.3" height="7.9"/>
		<path class="st0" d="M111.6,503.2l-6-12l100.9-50.6l6,12L111.6,503.2z M113,493.7l1,2.1l91-45.6l-1-2.1L113,493.7z"/>
	</g>
	<g>
		
			<rect x="229.9" y="530.7" transform="matrix(-8.243095e-010 -1 1 -8.243095e-010 -283.7642 785.4733)" class="st0" width="41.8" height="7.9"/>
		<path class="st0" d="M257.6,558.3h-13.4v-47.4h13.4V558.3z M249.7,552.8h2.3v-36.3h-2.3V552.8z"/>
	</g>
	<g>
		
			<rect x="229.9" y="492.8" transform="matrix(-8.243095e-010 -1 1 -8.243095e-010 -245.8627 747.5718)" class="st0" width="41.8" height="7.9"/>
		<path class="st0" d="M257.6,520.4h-13.4V473h13.4V520.4z M249.7,514.9h2.3v-36.3h-2.3V514.9z"/>
	</g>
	<g>
		
			<rect x="232.4" y="709.5" transform="matrix(-9.351327e-010 -1 1 -9.351327e-010 -462.5607 964.2698)" class="st0" width="36.9" height="7.9"/>
		<path class="st0" d="M257.6,734.6h-13.4v-42.4h13.4V734.6z M249.7,729.1h2.3v-31.3h-2.3V729.1z"/>
	</g>
	<g>
		<g>
			
				<rect x="387.7" y="421.3" transform="matrix(-4.131592e-010 -1 1 -4.131592e-010 4.221 854.6888)" class="st0" width="83.5" height="7.9"/>
			<path class="st0" d="M436.2,469.7h-13.4v-89h13.4V469.7z M428.3,464.2h2.3v-77.9h-2.3V464.2z"/>
		</g>
		<g>
			
				<rect x="387.7" y="601.8" transform="matrix(-4.131592e-010 -1 1 -4.131592e-010 -176.3159 1035.2257)" class="st0" width="83.5" height="7.9"/>
			<path class="st0" d="M436.2,650.3h-13.4v-89h13.4V650.3z M428.3,644.7h2.3v-77.9h-2.3V644.7z"/>
		</g>
		<g>
			
				<rect x="27.3" y="422.4" transform="matrix(-4.130944e-010 -1 1 -4.130944e-010 -357.3714 495.3652)" class="st0" width="83.5" height="7.9"/>
			<path class="st0" d="M75.7,470.9H62.3v-89h13.4V470.9z M67.8,465.3h2.3v-77.9h-2.3V465.3z"/>
		</g>
		<g>
			
				<rect x="114.9" y="691" transform="matrix(-1 8.268840e-011 -8.268840e-011 -1 499.2036 1389.9579)" class="st0" width="269.3" height="7.9"/>
			<path class="st0" d="M387,701.7H112.2v-13.4H387V701.7z M117.7,696.2h263.8v-2.3H117.7V696.2z"/>
		</g>
		<g>
			
				<rect x="208.2" y="862.7" transform="matrix(-4.049320e-010 -1 1 -4.049320e-010 -615.8332 1117.4662)" class="st0" width="85.1" height="7.9"/>
			<path class="st0" d="M257.5,912h-13.4v-90.7h13.4V912z M249.6,906.4h2.3v-79.6h-2.3V906.4z"/>
		</g>
		<g>
			
				<rect x="289.5" y="732.7" transform="matrix(0.894 -0.448 0.448 0.894 -293.901 230.5667)" class="st0" width="102" height="7.9"/>
			<path class="st0" d="M295.4,766.7l-6-12l96.1-48.2l6,12L295.4,766.7z M296.8,757.2l1,2.1l86.2-43.2l-1-2.1L296.8,757.2z"/>
		</g>
		<g>
			
				<rect x="107.9" y="733.2" transform="matrix(-0.894 -0.448 0.448 -0.894 -26.8389 1468.0081)" class="st0" width="104.6" height="7.9"/>
			<path class="st0" d="M206.4,767.8L108,718.5l6-12l98.4,49.3L206.4,767.8z M115.4,716l88.5,44.4l1-2.1l-88.5-44.4L115.4,716z"/>
		</g>
		<g>
			
				<rect x="46.9" y="821.1" transform="matrix(-0.5808 -0.814 0.814 -0.5808 -417.7907 1435.0425)" class="st0" width="227.4" height="7.9"/>
			<path class="st0" d="M222.8,923.8L87.5,734.2l10.9-7.8L233.7,916L222.8,923.8z M95.2,735.5l128.9,180.6l1.9-1.4L97.1,734.1
				L95.2,735.5z"/>
		</g>
		<g>
			
				<rect x="231.7" y="822.4" transform="matrix(0.5808 -0.814 0.814 0.5808 -528.5599 626.269)" class="st0" width="224.2" height="7.9"/>
			<path class="st0" d="M282.6,923.8l-10.9-7.8l133.5-187l10.9,7.8L282.6,923.8z M279.4,914.7l1.9,1.4l127-178l-1.9-1.4L279.4,914.7
				z"/>
		</g>
		<g>
			
				<rect x="231.5" y="316.4" transform="matrix(-8.913103e-010 1 -1 -8.913103e-010 571.1766 69.4675)" class="st0" width="38.7" height="7.9"/>
			<path class="st0" d="M257.6,342.4h-13.4v-44.2h13.4V342.4z M249.7,336.9h2.3v-33.1h-2.3V336.9z"/>
		</g>
		<g>
			
				<rect x="208.2" y="162.2" transform="matrix(-4.049323e-010 1 -1 -4.049323e-010 417.0018 -84.6312)" class="st0" width="85.1" height="7.9"/>
			<path class="st0" d="M257.5,211.5h-13.4v-90.7h13.4V211.5z M249.6,206h2.3v-79.6h-2.3V206z"/>
		</g>
		<g>
			
				<rect x="289.5" y="292.3" transform="matrix(0.894 0.448 -0.448 0.894 168.78 -121.1354)" class="st0" width="102" height="7.9"/>
			<path class="st0" d="M385.5,326.3l-96.1-48.2l6-12l96.1,48.2L385.5,326.3z M296.8,275.7l86.2,43.2l1-2.1l-86.2-43.2L296.8,275.7z
				"/>
		</g>
		<g>
			
				<rect x="107.8" y="291.4" transform="matrix(-0.894 0.448 -0.448 -0.894 436.8645 487.3751)" class="st0" width="105.9" height="7.9"/>
			<path class="st0" d="M114,326.3l-6-12l99.7-49.9l6,12L114,326.3z M115.4,316.8l1,2.1l89.8-45l-1-2.1L115.4,316.8z"/>
		</g>
		<g>
			
				<rect x="46.9" y="203.8" transform="matrix(-0.5808 0.814 -0.814 -0.5808 422.9557 197.7038)" class="st0" width="227.4" height="7.9"/>
			<path class="st0" d="M98.4,306.5l-10.9-7.8L222.8,109l10.9,7.8L98.4,306.5z M95.2,297.4l1.9,1.4L226,118.1l-1.9-1.4L95.2,297.4z"
				/>
		</g>
		<g>
			
				<rect x="231.7" y="202.5" transform="matrix(0.5808 0.814 -0.814 0.5808 312.2115 -193.349)" class="st0" width="224.3" height="7.9"/>
			<path class="st0" d="M405.1,303.9L271.6,116.8l10.9-7.8l133.5,187.1L405.1,303.9z M279.4,118.1l127.1,178.1l1.9-1.4L281.3,116.8
				L279.4,118.1z"/>
		</g>
		<g>
			
				<rect x="114.9" y="512.1" transform="matrix(-1 8.268840e-011 -8.268840e-011 -1 499.2036 1032.0317)" class="st0" width="269.3" height="7.9"/>
			<path class="st0" d="M387,522.7H112.2v-13.4H387V522.7z M117.7,517.2h263.8v-2.3H117.7V517.2z"/>
		</g>
		<g>
			
				<rect x="114.9" y="333.1" transform="matrix(-1 8.266131e-011 -8.266131e-011 -1 499.2916 674.1055)" class="st0" width="269.4" height="7.9"/>
			<path class="st0" d="M387.1,343.8h-275v-13.4h275V343.8z M117.7,338.2h263.9v-2.3H117.7V338.2z"/>
		</g>
		<g>
			
				<rect x="27.3" y="602.5" transform="matrix(-4.130944e-010 -1 1 -4.130944e-010 -537.4667 675.4605)" class="st0" width="83.5" height="7.9"/>
			<path class="st0" d="M75.7,651H62.3v-89h13.4V651z M67.8,645.4h2.3v-77.9h-2.3V645.4z"/>
		</g>
	</g>
</g>
</svg>
