<?xml version="1.0" encoding="UTF-8" standalone="no"?>
<!-- Generator: Adobe Illustrator 19.2.1, SVG Export Plug-In . SVG Version: 6.00 Build 0)  -->

<svg
   xmlns:dc="http://purl.org/dc/elements/1.1/"
   xmlns:cc="http://creativecommons.org/ns#"
   xmlns:rdf="http://www.w3.org/1999/02/22-rdf-syntax-ns#"
   xmlns:svg="http://www.w3.org/2000/svg"
   xmlns="http://www.w3.org/2000/svg"
   xmlns:sodipodi="http://sodipodi.sourceforge.net/DTD/sodipodi-0.dtd"
   xmlns:inkscape="http://www.inkscape.org/namespaces/inkscape"
   version="1.1"
   id="Layer_1"
   x="0px"
   y="0px"
   viewBox="0 0 368.30001 785.29997"
   xml:space="preserve"
   sodipodi:docname="tree.svg"
   width="368.29999"
   height="785.29999"
   inkscape:version="0.92.2 (5c3e80d, 2017-08-06)"><metadata
     id="metadata15"><rdf:RDF><cc:Work
         rdf:about=""><dc:format>image/svg+xml</dc:format><dc:type
           rdf:resource="http://purl.org/dc/dcmitype/StillImage" /><dc:title></dc:title></cc:Work></rdf:RDF></metadata><defs
     id="defs13" /><sodipodi:namedview
     pagecolor="#ffffff"
     bordercolor="#666666"
     borderopacity="1"
     objecttolerance="10"
     gridtolerance="10"
     guidetolerance="10"
     inkscape:pageopacity="0"
     inkscape:pageshadow="2"
     inkscape:window-width="640"
     inkscape:window-height="480"
     id="namedview11"
     showgrid="false"
     fit-margin-top="0"
     fit-margin-left="0"
     fit-margin-right="0"
     fit-margin-bottom="0"
     inkscape:zoom="0.28031832"
     inkscape:cx="178.94999"
     inkscape:cy="392.64999"
     inkscape:window-x="202"
     inkscape:window-y="195"
     inkscape:window-maximized="0"
     inkscape:current-layer="Layer_1" /><style
     type="text/css"
     id="style2">
	.st0{fill:#956929;}
</style><g
     id="g8"
     transform="translate(-77.6,-28.3)"><path
       class="st0"
       d="m 263,395 c 21.9,0 39.7,-17.8 39.7,-39.7 0,-21.9 -17.8,-39.7 -39.7,-39.7 -21.9,0 -39.7,17.8 -39.7,39.7 0,21.9 17.8,39.7 39.7,39.7 z m 0,-73.9 c 18.9,0 34.2,15.3 34.2,34.2 0,18.9 -15.3,34.2 -34.2,34.2 -18.9,0 -34.2,-15.3 -34.2,-34.2 0,-18.9 15.4,-34.2 34.2,-34.2 z"
       id="path4"
       inkscape:connector-curvature="0"
       style="fill:#956929" /><path
       class="st0"
       d="m 445.9,420.8 c 0,-20.8 -16.1,-38 -36.6,-39.6 V 317 c 20.4,-1.6 36.6,-18.8 36.6,-39.6 0,-21.9 -17.8,-39.7 -39.7,-39.7 -5.7,0 -11.1,1.2 -16,3.4 L 288.4,98.5 c 8.8,-7.3 14.3,-18.3 14.3,-30.5 0,-21.9 -17.8,-39.7 -39.7,-39.7 -21.9,0 -39.7,17.8 -39.7,39.7 0,13.1 6.4,24.7 16.2,32 L 137.3,243.1 c -5.9,-3.5 -12.7,-5.4 -20,-5.4 -21.9,0 -39.7,17.8 -39.7,39.7 0,20.8 16.1,38 36.6,39.6 v 64.2 c -20.4,1.6 -36.6,18.8 -36.6,39.6 0,20.8 16.1,38 36.6,39.6 v 64.2 c -20.4,1.6 -36.6,18.8 -36.6,39.6 0,21.9 17.8,39.7 39.7,39.7 7.2,0 13.9,-1.9 19.7,-5.3 L 239.3,742 c -9.7,7.3 -16.1,18.8 -16.1,31.9 0,21.9 17.8,39.7 39.7,39.7 21.9,0 39.7,-17.8 39.7,-39.7 0,-12.2 -5.5,-23.1 -14.2,-30.4 L 390.3,600.7 c 4.8,2.1 10.1,3.2 15.7,3.2 21.9,0 39.7,-17.8 39.7,-39.7 0,-20.8 -16.1,-38 -36.6,-39.6 v -64.2 c 20.6,-1.6 36.8,-18.8 36.8,-39.6 z M 366.5,561 H 266.2 v -31.3 c 20.4,-1.6 36.6,-18.8 36.6,-39.6 0,-4.7 -0.8,-9.2 -2.3,-13.4 L 372,440.9 c 6.4,10.9 17.8,18.4 31.1,19.5 v 64.2 c -19.5,1.5 -35.1,17 -36.6,36.4 z M 263,664.5 c -18.9,0 -34.2,-15.3 -34.2,-34.2 0,-18.9 15.3,-34.2 34.2,-34.2 18.9,0 34.2,15.3 34.2,34.2 0,18.9 -15.3,34.2 -34.2,34.2 z m -111.3,-223.9 73.6,36.9 c -1.3,4 -2.1,8.2 -2.1,12.7 0,20.8 16.1,38 36.6,39.6 V 561 h -103 c -1.5,-19.4 -17,-34.9 -36.4,-36.4 v -64.2 c 13.4,-1.1 25,-8.8 31.3,-19.8 z m 5.2,-160.1 h 209.6 c 1.5,19.4 17,34.9 36.4,36.4 v 64.2 c -19.4,1.5 -34.9,17 -36.4,36.4 H 156.9 c -1.5,-19.4 -17,-34.9 -36.4,-36.4 V 317 c 19.4,-1.6 34.9,-17.1 36.4,-36.5 z M 263.1,177.9 c 18.9,0 34.2,15.3 34.2,34.2 0,18.9 -15.3,34.2 -34.2,34.2 -18.9,0 -34.2,-15.3 -34.2,-34.2 0,-18.8 15.3,-34.2 34.2,-34.2 z m 103.4,96.3 H 266.2 v -22.5 c 14.2,-1.1 26.3,-9.6 32.4,-21.7 l 69.8,35 c -1,2.9 -1.6,6 -1.9,9.2 z M 259.9,251.7 v 22.5 h -103 c -0.2,-3.1 -0.8,-6 -1.7,-8.9 l 72,-36.1 c 6,12.5 18.2,21.4 32.7,22.5 z m 3.1,272.6 c -18.9,0 -34.2,-15.3 -34.2,-34.2 0,-18.9 15.3,-34.2 34.2,-34.2 18.9,0 34.2,15.3 34.2,34.2 0,18.9 -15.3,34.2 -34.2,34.2 z M 156.9,423.9 h 103 v 26.6 c -13.9,1.1 -25.8,9.4 -32,21.1 l -73.4,-36.8 c 1.3,-3.4 2.1,-7 2.4,-10.9 z m 109.3,26.6 v -26.6 h 100.3 c 0.3,4 1.2,7.7 2.6,11.3 l -71.3,35.7 c -6.3,-11.3 -18,-19.3 -31.6,-20.4 z M 156.9,567.3 h 103 v 23.4 c -14.3,1.1 -26.5,9.9 -32.6,22.2 L 155,576.7 c 1,-3 1.6,-6.1 1.9,-9.4 z m 109.3,23.4 v -23.4 h 100.3 c 0.3,3.4 1,6.7 2,9.8 l -70.2,35.2 c -6.1,-12 -18.1,-20.4 -32.1,-21.6 z M 440.3,420.8 c 0,18.9 -15.3,34.2 -34.2,34.2 -18.9,0 -34.2,-15.3 -34.2,-34.2 0,-18.9 15.3,-34.2 34.2,-34.2 18.9,0 34.2,15.3 34.2,34.2 z m 0,-143.4 c 0,18.9 -15.3,34.2 -34.2,34.2 -18.9,0 -34.2,-15.3 -34.2,-34.2 0,-18.9 15.3,-34.2 34.2,-34.2 18.9,0 34.2,15.3 34.2,34.2 z M 384.5,244 c -5.8,3.8 -10.5,9 -13.7,15.1 l -69.9,-35 c 1.2,-3.8 1.9,-7.8 1.9,-12 0,-20.9 -16.2,-38 -36.7,-39.6 v -64.9 c 6.2,-0.5 12,-2.4 17.1,-5.4 z M 228.8,68 c 0,-18.9 15.3,-34.2 34.2,-34.2 18.9,0 34.2,15.3 34.2,34.2 0,18.9 -15.3,34.2 -34.2,34.2 -18.8,0 -34.2,-15.4 -34.2,-34.2 z m 16,35.3 c 4.6,2.4 9.6,3.8 15,4.3 v 65 c -20.4,1.7 -36.5,18.8 -36.5,39.6 0,3.9 0.6,7.7 1.6,11.2 l -72.2,36.2 c -2.5,-5 -6,-9.3 -10.3,-12.8 z M 83.1,277.4 c 0,-18.9 15.3,-34.2 34.2,-34.2 18.9,0 34.2,15.3 34.2,34.2 0,18.9 -15.3,34.2 -34.2,34.2 -18.9,0 -34.2,-15.4 -34.2,-34.2 z m 0,143.4 c 0,-18.9 15.3,-34.2 34.2,-34.2 18.9,0 34.2,15.3 34.2,34.2 0,18.9 -15.3,34.2 -34.2,34.2 -18.9,0 -34.2,-15.4 -34.2,-34.2 z m 0,143.4 c 0,-18.9 15.3,-34.2 34.2,-34.2 18.9,0 34.2,15.3 34.2,34.2 0,18.9 -15.3,34.2 -34.2,34.2 -18.9,0 -34.2,-15.4 -34.2,-34.2 z m 59.1,30.9 c 4.2,-3.4 7.7,-7.7 10.3,-12.5 l 72.5,36.3 c -1.1,3.6 -1.7,7.5 -1.7,11.5 0,20.8 16.1,38 36.6,39.6 v 64.4 c -5.4,0.4 -10.5,2 -15.1,4.4 z m 155,178.8 c 0,18.9 -15.3,34.2 -34.2,34.2 -18.9,0 -34.2,-15.3 -34.2,-34.2 0,-18.9 15.3,-34.2 34.2,-34.2 18.9,0 34.2,15.4 34.2,34.2 z m -13.8,-34.1 c -5.1,-3.1 -11,-5 -17.3,-5.5 V 670 c 20.5,-1.6 36.6,-18.7 36.6,-39.6 0,-4.3 -0.7,-8.4 -1.9,-12.3 l 70.3,-35.2 c 3.2,6 8,11.1 13.8,14.8 z M 440.3,564.2 c 0,18.9 -15.3,34.2 -34.2,34.2 -18.9,0 -34.2,-15.3 -34.2,-34.2 0,-18.9 15.3,-34.2 34.2,-34.2 18.9,0 34.2,15.3 34.2,34.2 z"
       id="path6"
       inkscape:connector-curvature="0"
       style="fill:#956929" /></g></svg>